<?xml version="1.0" encoding="utf-8"?>
<!-- Generator: Adobe Illustrator 19.0.0, SVG Export Plug-In . SVG Version: 6.00 Build 0)  -->
<svg version="1.1" id="Capa_1" xmlns="http://www.w3.org/2000/svg" xmlns:xlink="http://www.w3.org/1999/xlink" x="0px" y="0px"
	 viewBox="0 0 300 250" style="enable-background:new 0 0 300 250;" xml:space="preserve">
<style type="text/css">
	.st0{fill:#FFFFFF;}
</style>
<path id="XMLID_2_" class="st0" d="M0,0.1v250h300V0.1H0z M112.1,128.2c-6.3-7.3-11.1-16.3-14.3-26.6c-3.9-12.7-5.3-28.5-3.8-44.5
	c2.3-2.1,7-6.2,13.8-10.8c-1.2,13.6-2,31.1,1.1,49c3.4,19.3,10.2,34.9,20.2,46.7C124.8,139.8,118.4,135.6,112.1,128.2z M144.4,146.6
	c-0.7-0.2-4.4-1.4-7.4-7.7c-4.5-10.4-9.9-32.2-9.9-76.8c-0.1-8.9,0.6-23.8,0.7-27.4c3.3-2,14.1-8.1,31.7-13.6
	c1.5,13.2,2.3,31.5,2,47c-0.3,32.4-3.7,56.9-9.9,70.9C148.8,145.1,145.1,146.4,144.4,146.6z M187.2,111
	c-5.8,12.5-14.8,22.3-26.7,29.3c0.1-0.2,0.3-0.4,0.4-0.6c3.4-4.7,8.4-12.6,12.6-23.8c4.7-12.5,7.5-26.4,8.3-41.4
	c1-18.2-1-38-5.9-58.9c1.9-0.6,5.3-1.5,10-2.3c1.8,5.5,9,28.4,9.4,53.6C195.7,84,192.9,98.8,187.2,111z"/>
</svg>
