<?xml version="1.0" encoding="utf-8"?>
<!-- Generator: Adobe Illustrator 19.0.0, SVG Export Plug-In . SVG Version: 6.00 Build 0)  -->
<svg version="1.1" id="Capa_1" xmlns="http://www.w3.org/2000/svg" xmlns:xlink="http://www.w3.org/1999/xlink" x="0px" y="0px"
	 viewBox="-110 315.3 373.3 210.6" style="enable-background:new -110 315.3 373.3 210.6;" xml:space="preserve">
<style type="text/css">
	.st0{fill:#34657F;}
	.st1{fill:#07272D;}
	.st2{fill:#999999;}
	.st3{fill:#CCCCCC;}
	.st4{fill:#FFFFFF;}
</style>
<g>
	<path class="st0" d="M84.6,315.7L-5,518.2c8.9,4,80.2,7.7,90.6,7.7V315.8C85.3,315.8,84.9,315.7,84.6,315.7z"/>
	<path class="st1" d="M85.6,315.8l-1,206.8c10.4,0,73.5-20.4,82.4-24.3L86.6,315.7C86.3,315.7,86,315.8,85.6,315.8z"/>
	<path class="st1" d="M83.6,315.3L-110,500.5c6.5,6.9,96.3,13.8,105,17.7l89.6-202.5C84.3,315.6,83.9,315.5,83.6,315.3z"/>
	<path class="st0" d="M87.6,315.3c-0.3,0.2-0.6,0.3-1,0.4L167,498.2c8.7-3.9,89.8-13.6,96.3-20.5L87.6,315.3z"/>
</g>
<g>
	<path class="st2" d="M87.6,315.3c-0.6,0.3-1.2,0.5-2,0.5c-0.7,0-1.4-0.2-2-0.5l-11.5,10.9c3.4,3.6,8.2,5.8,13.5,5.8
		c5.3,0,10.1-2.2,13.5-5.8L87.6,315.3z"/>
</g>
<g>
	<path class="st3" d="M84.6,315.6l-5.9,13.2c2.1,0.9,4.4,1.5,6.9,1.5v-14.6C85.3,315.7,84.9,315.7,84.6,315.6z"/>
	<path class="st4" d="M85.6,315.7v14.6c2.4,0,4.8-0.5,6.9-1.5l-5.9-13.2C86.3,315.7,86,315.7,85.6,315.7z"/>
	<path class="st4" d="M83.6,315.3L73.3,325c1.5,1.6,3.4,2.9,5.4,3.8l5.9-13.2C84.3,315.5,83.9,315.4,83.6,315.3z"/>
	<path class="st3" d="M87.6,315.3c-0.3,0.2-0.6,0.3-1,0.4l5.9,13.2c2.1-0.9,3.9-2.2,5.4-3.8L87.6,315.3z"/>
</g>
</svg>
