<?xml version="1.0" encoding="utf-8"?>
<!-- Generator: Adobe Illustrator 24.1.2, SVG Export Plug-In . SVG Version: 6.00 Build 0)  -->
<svg version="1.1" id="Layer_1" xmlns="http://www.w3.org/2000/svg" xmlns:xlink="http://www.w3.org/1999/xlink" x="0px" y="0px"
	 viewBox="0 0 35.7 35.4" style="enable-background:new 0 0 35.7 35.4;" xml:space="preserve">
<style type="text/css">
	.st0{fill:#FFFFFF;}
</style>
<path class="st0" d="M4.2,34.2c-1.6,0-2.9-1.3-2.9-3c0-1.7,1.3-3,2.9-3c0.6,0,1.2,0.2,1.7,0.5v-0.4h1.4V34H5.9v-0.4
	C5.4,34,4.8,34.2,4.2,34.2 M2.6,31.2c0,0.9,0.8,1.6,1.6,1.6c0.9,0,1.7-0.8,1.7-1.6c0-0.9-0.8-1.7-1.7-1.7
	C3.4,29.5,2.6,30.3,2.6,31.2 M10.7,34.2c-1.6,0-2.9-1.3-2.9-3c0-1.7,1.3-3,2.9-3c0.6,0,1.2,0.2,1.7,0.5v-2.4h1.4V34h-1.4v-0.4
	C11.8,34,11.3,34.2,10.7,34.2 M9.1,31.2c0,0.9,0.8,1.6,1.7,1.6c0.9,0,1.6-0.8,1.6-1.6c0-0.9-0.8-1.7-1.6-1.7
	C9.8,29.5,9.1,30.3,9.1,31.2 M15.8,34h-1.4v-5.7h1.4V34z M14.4,26.3h1.4v1.4h-1.4V26.3z M21,26.3h1.4V34H21v-0.4
	c-0.5,0.3-1,0.5-1.7,0.5c-1.6,0-2.9-1.3-2.9-3c0-1.7,1.3-3,2.9-3c0.6,0,1.2,0.2,1.7,0.5V26.3z M17.7,31.2c0,0.9,0.8,1.6,1.6,1.6
	c0.9,0,1.6-0.8,1.6-1.6c0-0.9-0.8-1.7-1.6-1.7C18.5,29.5,17.7,30.3,17.7,31.2 M25.8,34.2c-1.6,0-2.9-1.3-2.9-3c0-1.7,1.3-3,2.9-3
	c0.6,0,1.2,0.2,1.6,0.5v-0.4h1.4V34h-1.4v-0.4C26.9,34,26.4,34.2,25.8,34.2 M24.2,31.2c0,0.9,0.8,1.6,1.6,1.6c0.9,0,1.6-0.8,1.6-1.6
	c0-0.9-0.7-1.7-1.6-1.7C24.9,29.5,24.2,30.3,24.2,31.2 M31.9,34.2c1.4,0,2.5-0.6,2.5-2c0-0.8-0.6-1.3-1.4-1.6
	c-0.9-0.2-2.1-0.2-2.1-0.8c0.1-0.4,0.4-0.5,1-0.5c0.9,0,0.9,0.5,0.9,0.8h1.4c-0.1-1.1-1-1.9-2.4-1.9c-1.5,0-2.3,0.8-2.3,1.8
	c0,0.6,0.3,1.1,0.8,1.4c0.4,0.2,0.9,0.3,1.4,0.4c0.6,0.1,1.2,0.1,1.2,0.6c0,0.3-0.3,0.7-1,0.7c-0.9,0-1.1-0.5-1.1-0.9h-1.5
	C29.4,33.4,30.3,34.2,31.9,34.2 M22.1,15.3c0.1-0.8,0.1-1.5,0.1-2.4c0-4.7-2.1-9.5-4.3-11.7c-2.3,2.2-4.3,7-4.3,11.7
	c0,0.9,0,1.6,0.1,2.4H22.1z M13,15.3c-0.4-0.6-0.9-1.2-1.3-1.8C8.8,10.1,4.5,8,1.5,7.8C1.3,10,2,12.6,3.3,15.3H13z M17.9,24.7
	c0.7-0.7,1.4-1.7,2.1-3h-4.2C16.5,23,17.2,24,17.9,24.7 M15.6,24.5c0-0.7,0-1.7-0.1-2.8H8.8C11.2,23.5,13.7,24.4,15.6,24.5
	 M34.4,7.8c-3,0.2-7.3,2.3-10.2,5.6c-0.5,0.6-1,1.2-1.3,1.8h9.7C33.9,12.6,34.6,10,34.4,7.8 M27,21.7h-6.6c-0.2,1.1-0.2,2.1-0.2,2.8
	C22.1,24.4,24.7,23.5,27,21.7 M30,19.3H5.8c0.4,0.5,0.8,0.9,1.2,1.2h21.6C29.2,20.2,29.7,19.7,30,19.3 M32,16.6
	c-0.2,0.4-0.6,1-0.9,1.3H4.8c-0.2-0.3-0.7-0.9-0.9-1.3H32z"/>
</svg>
