<svg xmlns="http://www.w3.org/2000/svg" xmlns:xlink="http://www.w3.org/1999/xlink" width="1920" height="530"><defs><path id="a" d="M1920 419.154s-105.881 46.369-130.54 54.56c-79.547 26.423-215.212 46.995-373.238-31.093-187.258-92.533-322.11-31.847-456.222 24.702l.032 11.226H-.124L0 .003h1920v419.151z"/></defs><clipPath id="b"><use xlink:href="#a" overflow="visible"/></clipPath><path clip-path="url(#b)" fill="#2C1E5E" d="M1920 419.156s-93.938 45.978-159.131 63.036c-81.422 21.305-204.204 29.831-344.647-39.569-141.54-69.942-261.831-48.733-373.091-9.781-29.004 10.154-55.569 22.354-83.131 34.481l-.18 11.226s-214.012 57.853-301.689 43.769C332.969 470.086 0 530 0 530V0h1920v419.156z"/><path opacity=".3" clip-path="url(#b)" fill="#5140AE" d="M1587.323 90.448c-29.147-3.678-54.255-2.815-95.947 3.694-105.378 16.46-108.383 65.163-292.9 27.407-205.732-42.096-376.164 131.93-263.864 391.604 124.719-30.382 255.78-76.655 471.944-18.653 131.47 35.272 241.371 24.746 320.558 3.956 81.726-130.407 47.456-384.381-139.791-408.008z"/><path opacity=".8" clip-path="url(#b)" fill="#5140AE" d="M1680.465 508.643c97.315-110.2 74.1-378.547-111.748-401.995-27.008-3.409-50.271-2.611-88.902 3.423-97.643 15.25-100.428 60.377-271.403 25.393-192.406-39.366-351.493 125.266-241.524 369.601.136-.034.269-.067.402-.102l11.435-2.918.493-.125c3.943-1.006 7.902-2.012 11.875-3.016.837-.214 1.673-.424 2.509-.637.857-.215 1.718-.429 2.577-.646a5056.153 5056.153 0 0 1 5.215-1.305c.895-.224 1.793-.445 2.688-.672.853-.208 1.705-.418 2.559-.629a631.13 631.13 0 0 1 2.713-.668c.862-.214 1.723-.424 2.586-.636.912-.224 1.828-.444 2.743-.668l2.547-.616c.976-.234 1.952-.471 2.931-.704.795-.19 1.586-.38 2.381-.567a776.93 776.93 0 0 1 3.502-.829l1.89-.444c1.719-.402 3.442-.803 5.174-1.2.712-.164 1.427-.326 2.141-.489 1.084-.247 2.171-.496 3.261-.74.795-.18 1.595-.358 2.393-.538 1.013-.226 2.023-.452 3.041-.675.828-.186 1.661-.366 2.492-.549.998-.219 2-.435 3.001-.65.837-.182 1.677-.361 2.517-.541 1.006-.215 2.015-.428 3.023-.64l2.512-.528 3.125-.643c.81-.163 1.619-.33 2.434-.496 1.133-.229 2.271-.454 3.408-.68.729-.144 1.456-.291 2.186-.435 1.822-.355 3.651-.709 5.485-1.057.539-.103 1.079-.202 1.618-.304 1.346-.251 2.689-.503 4.041-.75.771-.144 1.545-.28 2.318-.419 1.124-.203 2.246-.405 3.373-.604l2.523-.438c1.074-.187 2.15-.37 3.229-.556l2.593-.433c1.072-.176 2.146-.352 3.225-.527l2.604-.417c1.094-.171 2.193-.343 3.294-.512.854-.132 1.706-.265 2.566-.393 1.156-.176 2.317-.345 3.477-.514.805-.117 1.604-.235 2.413-.351 1.396-.2 2.799-.393 4.201-.585.577-.079 1.149-.16 1.729-.238 1.946-.264 3.899-.517 5.861-.764.712-.09 1.431-.175 2.146-.264 1.29-.16 2.579-.317 3.873-.471.848-.1 1.698-.194 2.549-.292 1.177-.135 2.354-.269 3.537-.396.889-.098 1.785-.192 2.68-.287 1.151-.12 2.306-.24 3.465-.357.913-.089 1.828-.181 2.743-.269a1115.26 1115.26 0 0 1 6.221-.572c1.203-.104 2.408-.202 3.615-.301.881-.073 1.762-.148 2.647-.215 1.327-.104 2.66-.202 3.994-.296.77-.057 1.534-.116 2.307-.167 2.078-.144 4.165-.277 6.262-.403.457-.025.916-.047 1.373-.074 1.674-.096 3.351-.188 5.034-.271.827-.039 1.661-.075 2.488-.114 1.331-.06 2.659-.12 3.993-.172.915-.037 1.835-.068 2.751-.103 1.264-.045 2.529-.088 3.799-.126a338.05 338.05 0 0 1 2.861-.076c1.256-.034 2.513-.063 3.775-.088.962-.02 1.925-.037 2.892-.054a970.59 970.59 0 0 1 6.704-.07c1.355-.008 2.721-.008 4.086-.008.887.002 1.77 0 2.66.004 1.633.008 3.274.024 4.92.045.629.008 1.254.01 1.887.018 2.251.033 4.511.079 6.784.138.729.016 1.466.043 2.197.062 1.577.045 3.153.093 4.742.147.925.031 1.856.072 2.784.11 1.408.054 2.815.11 4.231.175.992.045 1.987.096 2.984.146 1.371.069 2.747.142 4.125.217 1.019.059 2.04.117 3.062.182a604.49 604.49 0 0 1 7.212.475c1.435.099 2.874.21 4.316.323.98.075 1.959.147 2.942.229 1.585.126 3.179.268 4.776.41.851.075 1.695.145 2.549.223 2.432.225 4.872.461 7.328.713l.885.096c2.186.226 4.378.464 6.579.713.887.101 1.778.209 2.664.312 1.628.19 3.255.382 4.889.584 1.017.127 2.039.259 3.06.39a607.38 607.38 0 0 1 7.805 1.04c1.508.209 3.019.425 4.533.642a781.747 781.747 0 0 1 11.112 1.693c1.641.263 3.289.535 4.938.811.99.164 1.976.325 2.966.493 1.969.336 3.953.686 5.936 1.041.684.119 1.357.236 2.042.358 2.661.482 5.337.982 8.024 1.495.725.139 1.454.288 2.181.428 1.983.386 3.969.774 5.969 1.179 1.019.205 2.048.421 3.072.632 1.72.353 3.442.709 5.174 1.078 1.12.238 2.246.482 3.371.725 1.657.361 3.321.726 4.992 1.098 1.155.257 2.313.519 3.477.781 1.669.38 3.346.766 5.026 1.157 1.154.27 2.312.54 3.474.817 1.735.411 3.478.833 5.225 1.258 1.111.273 2.22.54 3.335.816 1.924.479 3.86.969 5.798 1.462.945.241 1.883.476 2.831.72 2.891.748 5.793 1.509 8.714 2.292 107.34 28.798 200.299 27.064 273.907 14.144z"/><path clip-path="url(#b)" fill="#321C80" d="M1627.097 332.274l3.366-2.608 2.057 2.798c.053.242 1.514 1.209 2.384 2.794.337.615.466.917.289 1.541-.251.892-1.45 4.655-1.45 4.655s-.56 5.093-.887 6.769c-.155.789-.619 2.365-1.047 3.047-.453.721-2.172 2.147-3.388-.269-.705-1.402-.616-4.066-.616-4.066s-1.127-6.935-2.135-11.242c-.195-.844 1.427-3.419 1.427-3.419z"/><path clip-path="url(#b)" fill="#8472C7" d="M1634.494 335.277c-1.736.697-2.445 3.842-2.552 5.357-.29 4.101-4.09 9.831-2.822 11.286.657.756 2.076.428 2.688-.651.396-.701.892-2.258 1.047-3.047.327-1.676 1.029-7.216 1.029-7.216s1.062-2.51 1.331-3.985c.019-.098.319-2.165-.721-1.744z"/><path clip-path="url(#b)" fill="#211355" d="M1608.482 274.323c-1.852 14.376 2.577 30.921 2.577 30.921l14.61 30.448 6.951-5.163s-6.17-15.694-6.591-19.825c-.421-4.134-5.756-10.058-5.756-10.058l.753-15.935s2.088-1.678 2.414-2.48c.914-2.253 0-9.725 0-9.725l-11.985-8.812c.001.001-2.619 7.89-2.973 10.629zM1650.401 299.117c.267 2.067-.044 3.925-.54 3.987-.492.065-.987-1.692-1.249-3.756-.265-2.066-.077-3.792.415-3.855.495-.064 1.111 1.561 1.374 3.624z"/><path opacity=".9" clip-path="url(#b)" fill="#8674C9" d="M1634.023 234.911c.269-2.231 3.792-8.6 3.792-8.6l2.992-8.288s-6.024-4.448-7.601-5.983c-.659.313-2.139 2.08-3.424 3.829-.349.469-1.445 1.827-2.251 3.566-.878 1.578-1.234 2.406-1.529 3.549-.231.915.233 1.255.716 1.612.711.523 1.988 1.257 2.374 2.172.444 1.055-.985 3.36-.985 3.36l-1.43 2.919s.904.579 2.062 1.209c1.81.881 5.144 1.829 5.284.655z"/><g clip-path="url(#b)"><path opacity=".3" fill="#8674C9" d="M1369.987 258.163c-239.108-23.418-322.489 101.427-310.409 224.738.343-.07.687-.14 1.031-.213.81-.163 1.619-.33 2.434-.496 1.133-.229 2.271-.454 3.408-.68.729-.144 1.456-.291 2.186-.435 1.822-.355 3.651-.709 5.485-1.057.539-.103 1.079-.202 1.618-.304 1.346-.251 2.689-.503 4.041-.75.771-.144 1.545-.28 2.318-.419 1.124-.203 2.246-.405 3.373-.604l2.523-.438c1.074-.187 2.15-.37 3.229-.556l2.593-.433c1.072-.176 2.146-.352 3.225-.527l2.604-.417c1.094-.171 2.193-.343 3.294-.512.854-.132 1.706-.265 2.566-.393 1.156-.176 2.317-.345 3.477-.514.805-.117 1.604-.235 2.413-.351 1.396-.2 2.799-.393 4.201-.585.577-.079 1.149-.16 1.729-.238 1.946-.264 3.899-.517 5.861-.764.712-.09 1.431-.175 2.146-.264 1.29-.16 2.579-.317 3.873-.471.848-.1 1.698-.194 2.549-.292 1.177-.135 2.354-.269 3.537-.396.889-.098 1.785-.192 2.68-.287 1.151-.12 2.306-.24 3.465-.357.913-.089 1.828-.181 2.743-.269a1115.26 1115.26 0 0 1 6.221-.572c1.203-.104 2.408-.202 3.615-.301.881-.073 1.762-.148 2.647-.215 1.327-.104 2.66-.202 3.994-.296.77-.057 1.534-.116 2.307-.167 2.078-.144 4.165-.277 6.262-.403.457-.025.916-.047 1.373-.074 1.674-.096 3.351-.188 5.034-.271.827-.039 1.661-.075 2.488-.114 1.331-.06 2.659-.12 3.993-.172.915-.037 1.835-.068 2.751-.103 1.264-.045 2.529-.088 3.799-.126a338.05 338.05 0 0 1 2.861-.076c1.256-.034 2.513-.063 3.775-.088.962-.02 1.925-.037 2.892-.054a970.59 970.59 0 0 1 6.704-.07c1.355-.008 2.721-.008 4.086-.008.887.002 1.77 0 2.66.004 1.633.008 3.274.024 4.92.045.629.008 1.254.01 1.887.018 2.251.033 4.511.079 6.784.138.729.016 1.466.043 2.197.062 1.577.045 3.153.093 4.742.147.925.031 1.856.072 2.784.11 1.408.054 2.815.11 4.231.175.992.045 1.987.096 2.984.146 1.371.069 2.747.142 4.125.217 1.019.059 2.04.117 3.062.182a604.49 604.49 0 0 1 7.212.475c1.435.099 2.874.21 4.316.323.98.075 1.959.147 2.942.229 1.585.126 3.179.268 4.776.41.851.075 1.695.145 2.549.223 2.432.225 4.872.461 7.328.713l.885.096c2.186.226 4.378.464 6.579.713.887.101 1.778.209 2.664.312 1.628.19 3.255.382 4.889.584 1.017.127 2.039.259 3.06.39a607.38 607.38 0 0 1 7.805 1.04c1.508.209 3.019.425 4.533.642a781.747 781.747 0 0 1 11.112 1.693c1.641.263 3.289.535 4.938.811.99.164 1.976.325 2.966.493 1.969.336 3.953.686 5.936 1.041.684.119 1.357.236 2.042.358 2.661.482 5.337.982 8.024 1.495.725.139 1.454.288 2.181.428 1.983.386 3.969.774 5.969 1.179 1.019.205 2.048.421 3.072.632 1.72.353 3.442.709 5.174 1.078 1.12.238 2.246.482 3.371.725 1.657.361 3.321.726 4.992 1.098 1.155.257 2.313.519 3.477.781 1.669.38 3.346.766 5.026 1.157 1.154.27 2.312.54 3.474.817 1.735.411 3.478.833 5.225 1.258 1.111.273 2.22.54 3.335.816 1.924.479 3.86.969 5.798 1.462.945.241 1.883.476 2.831.72 2.891.748 5.793 1.509 8.714 2.292 62.262 16.704 119.683 23.135 171.295 23.07 25.76-94.577-41.823-243.14-207.861-259.404z"/></g><path clip-path="url(#b)" fill="none" stroke="#FFF" stroke-width=".695" stroke-miterlimit="10" d="M1632.621 219.918c-.295 3.451-5.584 3.026-7.877 2.821-2.657-.236-6.645-.357-8.871 1.478-2.441 2.017-1.714 6.915-2.711 9.766-1.137 3.234-5.206 3.591-5.456 7.784-.202 3.383 1.916 5.404 3.312 8.205 1.371 2.758 1.785 5.582 1.021 8.585"/><path opacity=".3" clip-path="url(#b)" fill="#8674C9" d="M1090.504 491.377c79.554-15.263 171.744-20.724 295.492 12.479 47.181 12.658 91.217 18.64 131.571 20.055-1.994-73.864-59.175-162.694-174.089-173.949-167.894-16.442-241.797 56.6-252.974 141.415z"/><path opacity=".3" clip-path="url(#b)" fill="#8674C9" d="M1423.769 450.897c-2.757-1.894-6.498-2.531-11.652-1.388-1.331.295-2.465 1.207-3.442 2.516 4.111-.668 8.148-.908 12.446 1.333.764-1.06 1.665-1.835 2.648-2.461z"/><ellipse clip-path="url(#b)" fill="#FF6D57" cx="1093.909" cy="175.474" rx="14.173" ry="14.203"/><path clip-path="url(#b)" fill="#321C80" d="M1648.541 297.962l-.853-1.055 4.127-.454s4.499-2.725 5.625.953c.271.883.959 3.565 1.313 4.729.5 1.633 1.936 4.743 2.447 6.374.402 1.294.555 2.026.533 3.176-.02.852-.885 2.927-3.104 1.387-1.287-.894-2.482-3.279-2.482-3.279s-4.953-7.304-7.263-8.421c-.778-.374-.343-3.41-.343-3.41z"/><g clip-path="url(#b)"><path fill="#9F8FD4" d="M943.293 347.25c3.807 3.814 3.807 9.998 0 13.812-3.809 3.815-9.979 3.815-13.784 0-3.807-3.814-3.805-9.998 0-13.812 3.804-3.815 9.975-3.815 13.784 0z"/><g fill="#321C80"><path d="M933.822 356.742c.537.541.537 1.42-.002 1.962a1.385 1.385 0 1 1-1.959-1.961 1.385 1.385 0 0 1 1.961-.001z"/><circle cx="936.4" cy="354.157" r="1.386"/><circle cx="939.959" cy="350.589" r="1.386"/></g></g><path clip-path="url(#b)" fill="#9F8FD4" d="M1702.847 230.584a6.13 6.13 0 0 1 0 8.661 6.096 6.096 0 0 1-8.644 0 6.13 6.13 0 0 1 0-8.661 6.101 6.101 0 0 1 8.644 0z"/><g clip-path="url(#b)"><path fill="#E2E4FF" d="M1173.454 156.544s4.802 12.985 13.476 23.79c1.434 1.785 4.426 6.796 2.477 10.487-1.295 2.454-3.489 3.034-3.489 3.034l-23.691 11.493s3.774-1.568 4.651-4.47c1.085-3.587-.369-4.112-4.046-9.535-6.521-9.62-10.903-18.789-10.903-18.789l21.525-16.01z"/></g><path clip-path="url(#b)" fill="#FFF" d="M1178.879 191.031c-6.734 3.488-16.339 8.801-21.676 10.654.795 1.004 1.686 4.785 5.914 3.332.903-.31 18.734-8.942 23.508-11.427-2.746 1.39-5.828.037-7.746-2.559z"/><path clip-path="url(#b)" fill="#8674C9" d="M1641.314 253.961c-4.935-.41-18.053-.352-18.053-.352s-1.273 1.766-.556 4.065c9.678 2.895 13.907 3.938 17.63 3.845 1.375-.034 3.887-.928 4.289-3.077.495-2.624-1.063-4.296-3.31-4.481z"/><path clip-path="url(#b)" fill="#211355" d="M1630.341 240.136c1.456 4.859 6.098 16.11 9.11 19.313 3.15 3.349 6.688.104 6.18-2.624-1.023-5.475-4.7-16.934-8.072-19.893-3.101-2.717-8.368-.862-7.218 3.204z"/><g clip-path="url(#b)"><path fill="#B2A4DC" d="M1589.824 188.212h91.617v14.213h-91.617z"/></g><g opacity=".5" clip-path="url(#b)"><path fill="#FFF" d="M1593.306 188.212h18.15v14.213h-18.15z"/></g><path clip-path="url(#b)" fill="#FFF" d="M1099.659 171.186l-1.471-1.476-4.28 4.287-4.278-4.287-1.473 1.475 4.281 4.289-4.281 4.288 1.473 1.475 4.278-4.29 4.28 4.29 1.471-1.475-4.278-4.288z"/><g clip-path="url(#b)"><path fill="#FF6D57" d="M1561.934 269.127l-16.479 13.023-12.994-16.515 16.479-13.023z"/><path fill="#321C80" d="M1549.023 259.058l-10.33 8.163-1.043-1.326 10.329-8.164z"/><g opacity=".8" fill="#EEEBF5"><path d="M1552.359 263.302l-10.326 8.162 4.134 5.253 10.328-8.163zM1545.008 264.599l-5.165 4.081 1.044 1.328 5.165-4.081z"/></g></g><path clip-path="url(#b)" fill="#211355" d="M1596.918 194.28h10.664v2.357h-10.664z"/><path clip-path="url(#b)" fill="#8472C7" d="M1614.525 194.28h8.134v2.357h-8.134zM1629.602 194.28h10.664v2.357h-10.664zM1647.162 194.28h8.223v2.357h-8.223z"/><path clip-path="url(#b)" fill="#8674C9" d="M1608.026 225.376c.116-4.961.269-18.222.202-18.257l.123-1.276s1.642-2.47 1.908-3.05c.284-.626-.08-1.329-.443-1.91-.164-.265-.379-.41-.526-.812-.516-1.412-.228-2.062-1.077-2.489-.426-.215-1.022.14-1.63.35-.286.1-1.172.73-1.349 1.228-.119.341-.485.579-.582.808-.235.575-.012 1.996.026 2.481.038.484.278 1.598.29 2.597.006.397-3.828 15.959-3.516 19.679.117 1.37 1.146 4.938 3.314 5.215 2.641.338 3.209-2.309 3.26-4.564z"/><path clip-path="url(#b)" fill="#211355" d="M1645.734 220.526c-.519-.793 2.355-2.316.62-3.958-.343-.322-1.762-.139-1.944-.279.203-.283.609-1.943.662-2.312.183-1.238-.281-1.745-1.549-1.931-.409-.061-.969-.359-1.327-.227-.168-.357-.251-1.137-.471-1.305-1.272-.98-2.038-.193-2.63-.317-.777-.161-.797-.25-1.438-.468-1.691-.566-2.605-.468-3.559.511-.522.533-.892 1.8-.892 1.8s1.443.932.688 2.041c-.418.615-1.283 1.185-.881 2.729.3 1.153-.508 2.491-.508 2.491l.713-.105s.585-.13.822-.242c.469-.218.833.004 1.12.21.122.087 1.244.644.059 2.16-.282.359-.674.793-.973 1.126-.61.684-1.151.244-1.151.244-.529 3.442-.572 5.013.609 5.909.267.199 1.013.16 1.291.34.244.155 1.186 1.078 1.566.812 2.483-1.454 3.504-.019 4.368-2.061.318-.741.612-.595.961-.949.435-.444 2.212.562 1.952-2.253-.097-1.059.584-.976 1.287-1.476 1.107-.789.809-2.178.605-2.49z"/><path clip-path="url(#b)" fill="#FFF" d="M1635.592 220.945c-.731 1.246-2.172 1.756-3.213 1.14-1.043-.617-1.295-2.126-.563-3.371.734-1.247 2.175-1.758 3.219-1.14 1.04.617 1.289 2.127.557 3.371z"/><path clip-path="url(#b)" fill="none" stroke="#FFF" stroke-width="1.39" stroke-miterlimit="10" d="M1634.756 217.89c1.619-2.75 5.911-5.748 8.721-4.335 2.229 1.12 2.04 3.597.42 6.345"/><ellipse transform="rotate(8.389 1644.68 218.099)" clip-path="url(#b)" fill="#211355" cx="1644.872" cy="218.131" rx="2.313" ry="2.369"/><path clip-path="url(#b)" fill="#211355" d="M1636.368 253.581c-.171 3.155.942 7.386 4.419 8.298 3.544.929 5.742-3.737 3.121-4.907-1.328-.592-1.502-3.623-2.948-4.038-.902-.259-3.558-1.398-4.592.647"/><g clip-path="url(#b)" fill="#DFDCFA"><path d="M1046.438 150.718l-20.945-15.255a159.431 159.431 0 0 0-6.709 9.661c-3.522 5.524-3.428 7.071-7.146 7.487-2.226.25-4.403-1.247-5.386-2.045l19.339 16.811s1.024 1.219 3.786 1.442c4.155.338 6.156-3.054 7.546-4.871 3.059-3.99 6.809-9.763 9.515-13.23zM1006.252 150.566l-.548-.476c0 .001.202.197.548.476z"/></g><path clip-path="url(#b)" fill="#FFF" d="M1029.76 153.74c-5.513-3.749-12.871-9.979-17.685-14.468-2.786.8-5.507 5.202-5.785 5.815-.669 1.478-1.543 3.914.711 6.404.638.707 14.949 13.013 19.112 16.43-3.496-2.927-3.622-5.981 3.647-14.181z"/><ellipse clip-path="url(#b)" fill="#211355" cx="1670.309" cy="195.32" rx="3.643" ry="3.65"/><g clip-path="url(#b)"><ellipse fill="#B2A4DC" cx="1596.919" cy="153.597" rx="3.297" ry="3.305"/><g fill="#B2A4DC"><path d="M1596.918 145.56v16.077M1596.918 161.984a.347.347 0 0 1-.346-.348V145.56a.347.347 0 1 1 .694 0v16.077a.346.346 0 0 1-.348.347z"/><g><path d="M1596.918 139.425v3.681M1596.918 143.454a.347.347 0 0 1-.346-.348v-3.682c0-.193.154-.348.346-.348.194 0 .348.154.348.348v3.682a.347.347 0 0 1-.348.348z"/><g><path d="M1596.918 164.088v3.683M1596.918 168.119a.346.346 0 0 1-.346-.348v-3.684c0-.188.154-.347.346-.347.194 0 .348.158.348.347v3.684a.346.346 0 0 1-.348.348z"/></g></g></g><g fill="#B2A4DC"><path d="M1604.941 153.598h-16.045M1604.941 153.946h-16.045c-.191 0-.345-.155-.345-.349s.153-.348.345-.348h16.045c.189 0 .346.154.346.348s-.156.349-.346.349z"/><g><path d="M1611.06 153.598h-3.671M1611.06 153.946h-3.671a.349.349 0 1 1 0-.697h3.671c.194 0 .349.154.349.348s-.155.349-.349.349z"/><g><path d="M1586.45 153.598h-3.674M1586.45 153.946h-3.674c-.194 0-.348-.155-.348-.349s.153-.348.348-.348h3.674c.19 0 .347.154.347.348s-.156.349-.347.349z"/></g></g></g></g><g clip-path="url(#b)" fill="#9F8FD4"><path d="M1121.502 211.351a.35.35 0 0 0 .35-.348v-1.948a.347.347 0 1 0-.695 0v1.948c0 .191.155.348.345.348zM1121.502 221.743a.347.347 0 0 0-.345.35v1.944a.348.348 0 1 0 .695 0v-1.944a.35.35 0 0 0-.35-.35zM1125.742 216.199h-2.531a1.745 1.745 0 0 0-1.359-1.364v-2.538a.347.347 0 1 0-.695 0v2.538a1.749 1.749 0 0 0-1.361 1.364h-2.53a.345.345 0 0 0-.347.347c0 .193.152.348.347.348h2.53a1.745 1.745 0 0 0 1.361 1.363v2.538a.348.348 0 1 0 .695 0v-2.538a1.745 1.745 0 0 0 1.359-1.363h2.531a.347.347 0 1 0 0-.695zM1128.978 216.199h-1.94a.348.348 0 1 0 0 .695h1.94a.347.347 0 1 0 0-.695zM1115.973 216.199h-1.943a.347.347 0 1 0 0 .695h1.943a.347.347 0 0 0 0-.695z"/></g><g clip-path="url(#b)" fill="#B2A4DC"><path d="M1687.947 284.477a.347.347 0 0 0 .346-.348v-1.946a.347.347 0 1 0-.695 0v1.946a.35.35 0 0 0 .349.348zM1687.947 294.871a.346.346 0 0 0-.349.347v1.945a.347.347 0 1 0 .695 0v-1.945a.344.344 0 0 0-.346-.347zM1692.185 289.325h-2.528a1.749 1.749 0 0 0-1.363-1.363v-2.537a.347.347 0 1 0-.695 0v2.537a1.742 1.742 0 0 0-1.358 1.363h-2.531a.348.348 0 1 0 0 .697h2.531a1.744 1.744 0 0 0 1.358 1.362v2.537a.348.348 0 1 0 .695 0v-2.537a1.745 1.745 0 0 0 1.361-1.362h2.53a.349.349 0 0 0 0-.697zM1695.422 289.325h-1.943a.348.348 0 1 0 0 .697h1.943a.348.348 0 1 0 0-.697zM1682.416 289.325h-1.942a.346.346 0 0 0-.347.348c0 .191.153.349.347.349h1.942c.19 0 .345-.157.345-.349a.346.346 0 0 0-.345-.348z"/></g><path clip-path="url(#b)" fill="#8472C7" d="M1611.456 188.212h-18.15v1.6h7.484l1.592 1.856 1.589-1.856h7.485z"/><g clip-path="url(#b)"><path fill="#222047" d="M1467.035 364.561a1.688 1.688 0 0 1-2.321.577l-17.32-10.444a1.694 1.694 0 0 1-.578-2.324l21.812-36.327a1.69 1.69 0 0 1 2.321-.58l17.319 10.444a1.697 1.697 0 0 1 .577 2.326l-21.81 36.328z"/><path fill="#2F2C63" d="M1467.947 365.111a1.686 1.686 0 0 1-2.32.577l-17.32-10.442a1.695 1.695 0 0 1-.577-2.324l21.812-36.329a1.69 1.69 0 0 1 2.321-.578l17.317 10.443a1.694 1.694 0 0 1 .578 2.325l-21.811 36.328z"/><path fill="#B6B3E0" d="M1468.234 362.557l-18.385-11.087 19.696-32.807 18.387 11.088z"/><path fill="#B6B3E0" d="M1468.234 362.557l-18.385-11.087 19.696-32.807 18.387 11.088z"/><path opacity=".3" fill="#36336D" d="M1469.591 318.6l18.39 11.088-.234.39-18.39-11.088z"/><path fill="#9E9CFF" d="M1458.983 359.388a1.307 1.307 0 1 1-2.241-1.348 1.303 1.303 0 0 1 1.793-.448 1.31 1.31 0 0 1 .448 1.796z"/><g fill="#9E9CFF"><circle cx="1476.985" cy="321.475" r=".421"/><path d="M1482.102 324.557a.337.337 0 0 1-.461.114l-3.597-2.172a.33.33 0 0 1-.113-.455.33.33 0 0 1 .457-.113l3.596 2.17c.161.094.21.299.118.456z"/></g><path fill="#EEEBF5" d="M1475.319 362.751l-18.386-11.087 19.696-32.807 18.388 11.089z"/><path opacity=".5" fill="#EEEBF5" d="M1473.228 362.848l-18.388-11.087 19.694-32.805 18.39 11.088z"/><path opacity=".5" fill="#EEEBF5" d="M1471.135 362.945l-18.389-11.087 19.697-32.806 18.388 11.087z"/><path fill="#B6B3E0" d="M1481.579 335.566l-8.216-4.952 4.4-7.33 8.216 4.954z"/><path fill="#2F2C63" d="M1481.7 327.758l6.846 4.129-.567.94-6.847-4.128zM1485.598 333.64l-5.401-3.257.563-.941 5.403 3.256zM1479.799 331.086l8.252 4.978-.566.938-8.252-4.977z"/><path fill="#B6B3E0" d="M1469.625 355.479l-8.216-4.957 4.4-7.328 8.216 4.955z"/><path fill="#2F2C63" d="M1473.375 351.148l-4.145-2.5.565-.94 4.143 2.497zM1468.815 349.334l7.299 4.4-.566.939-7.3-4.4zM1472.361 355.019l-5.106-3.08.563-.942 5.108 3.081z"/><path fill="#8472C7" d="M1472.318 343.59l8.216 4.954 4.401-7.329-8.217-4.955z"/><path fill="#2F2C63" d="M1470.271 335.763l6.845 4.127.562-.943-6.842-4.124zM1474.61 340.716l-5.4-3.258.568-.942 5.4 3.258zM1471.787 341.06l-3.422-2.062.564-.938 3.423 2.061z"/></g><g clip-path="url(#b)"><path fill="#EEEBF5" d="M1731.428 399.147a1.826 1.826 0 0 1-2.133 1.459l-37.681-7.105a1.83 1.83 0 0 1-1.457-2.135l4.298-22.897a1.827 1.827 0 0 1 2.133-1.458l37.681 7.104a1.832 1.832 0 0 1 1.458 2.138l-4.299 22.894z"/><path fill="#EEEBF5" d="M1731.262 402.69c-.609-1.026-1.306-1.959-2.295-2.146l-37.353-7.043c-.991-.187-1.906.247-1.564 1.504l9.362 15.515c1.182 1.667 1.725 1.768 2.715 1.955l36.75 6.929c.99.187 2.064-.692 1.142-2.204l-8.757-14.51z"/><path fill="#211355" d="M1729.756 398.242l-37.715-7.111 3.97-21.142 37.715 7.111z"/><path fill="#8472C7" d="M1701.449 392.905l-9.408-1.774 3.97-21.142 9.407 1.774z"/><g fill="#D3D0DD"><path d="M1708.788 375.597l9.429 1.776-.156.828-9.43-1.776z"/><path opacity=".5" d="M1707.21 384.248l11.198 2.112-.156.825-11.198-2.111z"/><path d="M1706.256 389.613l6.246 1.179-.156.827-6.246-1.178z"/><path opacity=".5" d="M1713.348 391.021l3.123.587-.156.83-3.123-.586z"/><path opacity=".2" d="M1707.683 381.482l6.246 1.176-.156.83-6.246-1.177z"/><path d="M1714.916 382.91l4.245.8-.157.828-4.244-.8z"/><path opacity=".2" d="M1719.96 383.892l4.244.8-.155.826-4.244-.8z"/><path opacity=".5" d="M1708.357 378.25l13.907 2.622-.156.827-13.907-2.622z"/><path d="M1706.727 386.84l18.033 3.4-.156.826-18.033-3.4z"/><path opacity=".2" d="M1719.12 377.544l4.13.779-.157.83-4.13-.78z"/></g><path fill="#D3D0DD" d="M1697.925 373.552l3.125.587-.156.83-3.125-.588zM1696.286 382.239l3.71.699-.155.828-3.71-.699zM1695.341 387.581l2.072.39-.156.826-2.071-.39zM1696.75 379.452l2.068.392-.156.824-2.069-.391zM1697.413 376.205l4.607.867-.155.828-4.608-.868zM1695.78 384.798l5.98 1.126-.156.827-5.979-1.127z"/><path fill="#8472C7" d="M1732.289 409.665l-4.26-7.06-33.043-6.229 4.26 7.061z"/><path opacity=".4" fill="#8472C7" d="M1724.92 410.047l-14.262-2.689 2.932 4.86 14.244 2.687c-.017-.043-.032-.085-.061-.132l-2.853-4.726z"/><path fill="#211355" d="M1716.896 372.351a.43.43 0 1 1 0 0z"/></g><g clip-path="url(#b)"><path fill="#2C1E5E" d="M1697.665 238.115l-.981-.984 2.21-2.216-2.21-2.216.981-.982 3.192 3.198z"/></g><path clip-path="url(#b)" fill="#EEEBF5" d="M1742.505 302.255c2.888 5.728.597 12.718-5.119 15.612-5.714 2.894-12.692.599-15.579-5.13-2.891-5.73-.596-12.718 5.117-15.613 5.717-2.895 12.691-.6 15.581 5.131z"/><path clip-path="url(#b)" fill="#FF6D57" d="M1736.202 304.195c-1.111-.365-2.276-.099-3.159.598-.302-1.086-1.082-1.993-2.192-2.358-1.811-.598-3.784.467-4.41 2.377a3.88 3.88 0 0 0-.138.585 5.263 5.263 0 0 0-.098.986c-.014 2.617 2.758 5.991 3.932 7.273 1.702-.333 5.93-1.402 7.47-3.52a5.09 5.09 0 0 0 .505-.854c.092-.174.172-.356.235-.553.626-1.905-.337-3.937-2.145-4.534z"/><g clip-path="url(#b)"><path fill="#9F8FD4" d="M1578.146 352.494l-22.616 3.532-3.524-22.663 22.615-3.531z"/><g fill="#321C80"><path d="M1569.85 342.483l-.481-3.087a4.787 4.787 0 0 0-5.465-4 4.796 4.796 0 0 0-3.99 5.479l.479 3.085-.742 4.265 12.199-1.906-2-3.836zM1563.422 348.606a2.525 2.525 0 0 0 2.826 1.857c1.29-.203 2.187-1.351 2.129-2.632l-4.955.775z"/></g></g><path clip-path="url(#b)" fill="#321C80" d="M1634.814 235.045a16.157 16.157 0 0 1-7.727-2.84c-3.484.09-8.582-.695-10.748 3.445-1.896 3.62-3.816 10.181-4.884 12.612-1.997 4.555-2.347 14.641-2.141 16.592.364 3.466 1.095 3.232 3.646 4.272 3.661 1.494 7.197 2.035 7.197 2.035s8.339 4.505 10.305.774c1.006-1.906-.284-3.765.934-11.79.293-1.925 2.458-6.113 2.791-7.396.407-1.573 2.965-4.133 3.233-4.895 1.786-5.044 2.001-7.598.789-9.818-.918-1.686-3.395-2.991-3.395-2.991z"/><path opacity=".8" clip-path="url(#b)" fill="#8674C9" d="M1162.158 185.124c.49.789 1.038 1.582 1.578 2.405l16.132-9.053a61.442 61.442 0 0 1-2.098-3.16l-15.612 9.808z"/><path clip-path="url(#b)" fill="#321C80" d="M1174.607 169.645c-1.695-3.387-2.59-5.801-2.59-5.801l-15.347 11.417s.895 1.871 2.439 4.663l15.498-10.279zM1164.476 198.413l-.463.227s.181-.078.463-.227z"/><g opacity=".7" clip-path="url(#b)" fill="#8674C9"><path d="M1166.52 176.68l-6.726 4.46c.495.874 1.044 1.814 1.637 2.797l6.847-4.299-1.758-2.958zM1167.877 175.777l1.778 2.993 7.392-4.645a71.55 71.55 0 0 1-1.8-3.236l-7.37 4.888z"/></g><path opacity=".8" clip-path="url(#b)" fill="#8674C9" d="M1167.455 193.229c4.41-2.227 10.886-5.5 16.241-8.206-.39-1.773-1.44-3.433-2.069-4.219a47.502 47.502 0 0 1-.93-1.198l-16.185 9.082c1.634 2.4 2.609 3.465 2.943 4.541z"/><g clip-path="url(#b)" fill="none" stroke="#2C1E5E" stroke-width="1.39" stroke-miterlimit="10"><path d="M1037.896 152.158l-3.056-2.225M1032.891 148.515l-8.188-5.963"/></g><path clip-path="url(#b)" fill="none" stroke="#2C1E5E" stroke-width="1.39" stroke-miterlimit="10" d="M1033.34 152.642l-10.165-7.514"/><g clip-path="url(#b)"><path fill="#FF6D57" d="M1091.206 436.883l.06-.565.001-.004c.002-.075-.061.569-.061.569z"/></g><path opacity=".5" clip-path="url(#b)" fill="#8472C7" d="M1616.34 235.65c-1.896 3.62-3.816 10.181-4.884 12.612-1.997 4.555-2.347 14.641-2.141 16.592.217 2.081.572 2.825 1.37 3.317.257-.476.479-.986.656-1.495 1.244-3.512-.337-6.898.051-10.402.209-1.878.736-3.039 1.706-4.346 1.061-1.428 2.733-2.383 3.284-4.231 1.378-4.623-2.383-8.59 1.717-12.414a3.741 3.741 0 0 0-.693-.981 4.6 4.6 0 0 0-1.066 1.348z"/><path clip-path="url(#b)" fill="#211355" d="M1625.912 231.724c-2.005-1.238-6.035-2.38-9.733-4.072-.585-.268-.425-.886-1.744-1.083-.823-.12-1.01.226-1.748-.069-.673-.27-1.03-1.674-1.663-1.902a43.979 43.979 0 0 0-.812-.279c.332-1.536-1.535-1.664-2.782-1.657-2.223.012-5.619.709-6.518 2.89-.348.847-.348 1.995.091 2.97.274.606.849.671 1.464.748.037.067.073.136.115.197 3.193 4.681 16.722 11.498 21.209 10.916 4.086-.535 5.678-6.384 2.121-8.659z"/><path clip-path="url(#b)" fill="#8472C7" d="M1658.754 302.136c-.354-1.164-.857-3.366-1.137-4.246-.975-3.019-2.207-1.879-2.295-1.652-.362.918.157 2.113.606 3.147.475 1.104 1.484 2.87 2.16 5.032 1.097 3.528 1.261 6.167 1.836 7.644.243.628.538 1.322 1.059 1.231.658-.113.739-1.175.751-1.606.021-1.149-.131-1.882-.533-3.176-.512-1.631-1.947-4.741-2.447-6.374z"/><path clip-path="url(#b)" fill="#211355" d="M1649.111 295.483s-7.563 1.479-11.234 1.767c-6.104.479-8.863.477-8.863.477s.558-9.469.588-13.25c.014-1.974 1.978-6.997.166-11.709-2.74 2.107-9.609-1.605-9.609-1.605s-.604-.093-1.559-.304l-1.168 3.465-5.355-.195s.103 32.949 6.774 35.131c2.566.838 13.005-1.163 21.3-4.242 2.692-1.002 7.16-1.622 9.627-1.905-2.09-4.879-.667-7.63-.667-7.63z"/><g fill="none" stroke="#FFF" stroke-width="1.39" stroke-miterlimit="10" opacity=".2"><path d="M1023.326 265.542c.441-.825.885-1.639 1.329-2.441"/><path stroke-dasharray="5.5894,5.5894" d="M1027.438 258.252c29.822-50.139 65.911-53.157 102.07-39.193 19.957 7.709 24.502 16.418 48.547 15.577 65.675-2.291 52.802-49.091 113.511-66.606 109.438-31.578 153.649 71.307 240.533-28.176"/><path d="M1533.925 137.739a279.36 279.36 0 0 0 1.796-2.122"/></g><path fill="#211355" d="M1400.463 430.829c-.809-3.717-7.746-28.116-9.447-33.61-.637-2.063-6.031-16.383-6.705-18.198-7.458-20.162-10.167-11.088-12.523-8.194-12.714-2.625-22.983-2.79-25.291 6.806-5.031.082-9.846 1.206-14.306 3.016-10.39-8.855 2.685 46.802 2.017 44.856-.957-2.777 11.498 1.128 12.422 1.182 2.439 1.698 8.248 18.206 11.782 25.498-1.385.129-36.112-4.502-45.312-1.892-23.965 6.803-14.674 31.223-4.769 33.373 6.019 1.304 28.349 4.076 43.624 7.682 18.465 4.356 39.605 2.403 39.605 2.403 10.547-2.694 16.084-8.134 16.08-19.858-.001-10.139-3.486-26.128-7.177-43.064z"/><path fill="#321C80" d="M1208.4 490.568c-6.491 20.811-6.034 38.556 4.953 39.419 13.838.51 13.363-14.877 18.703-24.558 5.454-9.891 8.153-17.236 8.379-19.233.447-3.944 6.266-24.518-2.419-24.628-6.872-.085-16.919-1.052-21.058 3.304-4.921 5.174-5.527 15.983-8.558 25.696zM1279.407 470.257c-6.489 20.809-6.032 38.555 4.953 39.418 12.848 1.479 21.934-26.811 26.416-33.488 2.211-3.294 4.938-28.23-2.861-32.057-17.303-8.482-22.931 8.25-28.508 26.127z"/><path fill="#211355" d="M1380.934 409.713c-.324-2.136-3.64-26.174-4.16-28.037-5.77-20.711-9.218-11.892-11.808-9.203-12.452-3.672-22.673-4.687-25.766 4.685-5.02-.334-9.911.387-14.505 1.821-9.622-9.688-18.492-15.63-25.931-7.191-5.891 6.683-6.97 14.447-12.138 30.102-5.131 15.547-7.256 31.863-11.01 36.824-2.557 3.383-14.297 44.403-11.329 46.614 1.128 1.118 3.926 2.919 3.926 2.919l.008-.003c8.327 4.636 24.292 5.623 33.433-.954 13.202-9.499 27.43-48.396 28.188-49.95 1.855-3.791 4.484-10.703 8.04-9.931 7.171 1.603 46.097 2.451 43.052-17.696z"/><path fill="#B7A4F7" d="M1469.081 240.903s-19.764 4.604-25.949 7.28c-2.021.873-4.31 3.432-6.062 3.583-2.616.225-5.931-2.638-10.456.97-4.399 3.505-8.636 2.966-11.64 3.347-8.679 1.101-35.18 10.6-35.18 10.6l38.583 42.766 70.156-37.224s10.11-15.907 3.649-25.154c-7.774-11.126-23.101-6.168-23.101-6.168z"/><path fill="#B7A4F7" d="M1469.081 240.903s-19.764 4.604-25.949 7.28c-2.021.873-4.31 3.432-6.062 3.583-2.616.225-5.931-2.638-10.456.97-4.399 3.505-8.636 2.966-11.64 3.347-8.679 1.101-35.18 10.6-35.18 10.6l38.583 42.766 70.156-37.224s10.11-15.907 3.649-25.154c-7.774-11.126-23.101-6.168-23.101-6.168z"/><path fill="#B7A4F7" d="M1515.582 169.935s-7.915 19.807-11.556 25.889c-7.329 12.234-34.945 45.08-34.945 45.08s-15.53 21.917 6 31.66c12.056 5.453 22.084-6.238 25.942-12.299 11.327-17.8 43.366-74.896 43.366-74.896l-28.807-15.434zM1245.269 275.683s6.88-5.857 23.014-3.02c7.441 1.311 8.021-2.803 11.726-3.663 6.172-1.434 6.141 2.01 11.644.6 16.492-4.226 31.226-4.052 45.295-4.616 13.214-.53-16.906 50.549-16.906 50.549l-26.267-2.8s-12.677 2.645-24.09 2.833c-26.428.438-37.903-7.205-37.903-7.205s-6.531-5.979-4.689-17.115c2.214-13.402 18.176-15.563 18.176-15.563z"/><path fill="#B7A4F7" d="M1269.381 206.315s-6.364 24.242-7.152 31.764c-1.414 13.488-.633 52.306-.633 52.306s-2.239 26.787-24.961 20.312c-12.725-3.627-12.554-19.008-11.908-26.169 2.096-23.261 13.268-83.749 13.268-83.749l31.386 5.536z"/><ellipse fill="#DFDCFA" cx="1131.325" cy="252.736" rx="9.928" ry="9.947"/><path fill="#FF6D57" d="M1131.324 254.607a9.905 9.905 0 0 0-7.982 4.036 9.899 9.899 0 0 0 7.982 4.04 9.904 9.904 0 0 0 7.987-4.04 9.91 9.91 0 0 0-7.987-4.036z"/><ellipse fill="#B7A4F7" cx="1131.326" cy="250.832" rx="3.583" ry="3.589"/><path fill="#B7A4F7" d="M1404.315 274.873c-5.902-.918-9.6-1.932-15.39-3.951-3.774-1.317-12.732-4.854-17.343-5.455-7.92-1.033-19.146-1.087-29.153-.746-51.473 1.759-49.506 19.896-50.834 31.108-1.033 5.703-1.136 12.314 2.178 16.903 4.195 5.812 10.512 21.035 3.096 38.186-1.819 4.209-6.875 6.245-4.676 12.646 2.195 6.403 4.609 13.713 16.84 12.748 12.231-.967 15.357 5.804 29.261 9.49s29.19 4.824 38.854 1.025c9.663-3.798 9.797 4.349 15.26.383s-1.808-16.108.36-19.401c1.241-1.883 2.167-.862 7.137-5.513 4.968-4.649 8.406-7.278 8.816-17.424.274-6.773 7.278-17.898 11.048-28.346 8.721-20.814 5.225-39.918-15.454-41.653z"/><path fill="#D4CBFF" d="M1381.48 273.627c2.306-6.132 3.617-12.673 3.617-12.673-.475.257-37.908-2.817-39.641-8.218.441 6.67 1.355 12.551 2.271 17.311-1.472 1.773-11.93 6.344 3.328 17.37 6.047 4.372 6.841 5.705 11.062 13.849 4.092-6.643 25.372-14.245 21.945-24.875-.458-1.422-2.41-2.572-2.582-2.764z"/><path fill="#8674C9" d="M1385.098 260.954c-.475.257-37.908-2.817-39.641-8.218.09 2.408.256 5.23.59 7.285 2.861 5.865 7.482 13.315 15.955 15.657 4.797 1.326 9.01.468 12.188.056 1.527-.199 4.725-1.101 7.186-1.835 2.37-6.212 3.722-12.945 3.722-12.945z"/><path opacity=".5" fill="#FFF" d="M1292.529 364.542a69.372 69.372 0 0 0 .6 1.67l.053.138c.213.558.434 1.109.677 1.654.017.038.034.075.048.111.249.557.519 1.101.812 1.632l.01.017a15.307 15.307 0 0 0 1.023 1.613c.004.004.006.009.008.013l.034.046c.365.495.765.966 1.204 1.409.012.014.023.023.036.035l.009.01a11.204 11.204 0 0 0 1.52 1.264c.541.373 1.131.708 1.775.998.021.01.044.019.066.028.314.141.645.27.988.387l.012.006c1.119-3.077-.888-3.957-2.359-7.944-2.613-7.078 1.534-13.438 3.707-20.313 3.247-10.267 4.096-20.158-2.324-28.537-.893-1.164-4.739-4.771-6.89-6.407.077.119.151.244.235.36 4.195 5.812 10.512 21.035 3.096 38.186-.106.245-.225.48-.348.71-.006.012-.012.024-.02.036a9.494 9.494 0 0 1-.424.706c-.131.202-.267.399-.407.594-.022.029-.044.061-.065.091-.132.18-.268.356-.406.534-.038.053-.078.103-.116.153-.108.138-.217.272-.325.407-1.891 2.353-3.885 4.573-2.798 8.642.072.257.14.506.233.772.083.247.168.495.253.739l.083.24z"/><path opacity=".8" fill="#5140AE" d="M1310.846 310.697c5.056 5.001 7.137 8.379 14.257 9.47 7.137 1.092 16.421-.227 20.308-6.338-8.153 1.603-13.707 2.545-18.09 1.776-6.747-1.182-11.456-.941-16.475-4.908"/><path opacity=".7" fill="#5140AE" d="M1338.294 385.802c13.904 3.686 29.19 4.824 38.854 1.025 9.663-3.798 9.797 4.349 15.26.383s-1.808-16.108.36-19.401c1.241-1.883 3.782-2.86 7.528-8.544 6.102-9.25-2.579-10.57 2.149-16.398 12.818-15.796 13.159-27.458 10.319-25.798-2.071 1.212-6.758 15.554-15.365 18.42-8.605 2.867-15.68-2.106-22.598-5.412-4.66-2.226-8.883-1.941-6.087 3.496 2.496 4.854 4.899 12.222-.427 12.722-5.477.517-7.112-6.399-22.852-3.578-4.565.817-4.297-4.133-3.824-8.546.531-4.984 5.457-12.102-1.006-12.102-4.953 1.756-12.404 3.432-17.711.978-3.887-1.797-10.167-5.851-12.477-4.521-6.509 2.302 7.404 9.239 3.552 30.673-.433 2.406-3.144 9.213-4.275 11.227-3.214 5.715-1.056 11.036 2.958 15.833 9.396.499 13.222 6.25 25.642 9.543z"/><path fill="#211355" d="M1544.39 185.369c-2.31 4.327-10.63 4.381-18.585.119-7.956-4.263-12.531-11.227-10.223-15.554 2.308-4.329 10.627-4.382 18.583-.12 7.956 4.263 12.534 11.226 10.225 15.555z"/><path fill="#FFF" d="M1561.84 161.898c-.969-.672-4.279-2.637-4.279-2.637l-1.353-3.948s-1.396-1.965-1.77-2.107c-.373-.143-3.566-1.504-3.566-1.504s-.642-2.818-2.458-4.802c-1.814-1.979-4.131-1.146-4.131-1.146s1.516-5.86 1.836-7.454c.319-1.594 3.163-4.941 1.4-8.19-1.762-3.248-5.278-3.016-7.514-1.867-2.238 1.149-4.285 7.375-4.285 7.375s-2.701 5.979-4.756 7.626c-2.053 1.646-2.986 6.728-3.854 8.256-.865 1.53-6.261 3.331-6.261 3.331s-5.675-1.597-7.353-5.813c-1.682-4.217-4.376-5.389-4.376-5.389s-2.106-1.591-4.029.466c-1.418 1.513.989 7.403.989 7.403l5.17 11.685s4.9 5.975 6.728 8.128c-.651.885-1.649 2.429-2.515 3.688 1.329 3.846 5.116 7.753 10.371 10.568 5.288 2.832 10.807 3.615 14.542 2.646.788-1.975 1.466-4.063 1.915-5.354 2.416.219 3.299-.715 4.316-1.173 4.474-2.01 8.819-5.931 8.819-5.931s5.566-6.79 6.856-9.398c.5-1 1.028-3.441-.442-4.459z"/><path opacity=".2" fill="#B6B3E0" d="M1555.663 175.47c-.162-.222-3.147-.215-5.058-3.41-1.378-2.305-4.039.548-6.137-1.434-.437-1.341-1.051-2.991-2.48-3.562-.54-.217-4.757-.048-4.137-3.216.432-2.213 1.598-3.753.236-5.599-2.573-.976-3.084 2.02-4.813 2.16-3.919.321-5.947 3.348-6.81 4.833-1.324 2.287-5.724 6.49-5.688 6.531-.646.88-2.555 5.394-3.425 6.681 1.79 2.633 4.775 5.082 8.245 6.979 5.259 2.786 11.07 3.742 14.78 2.779.788-1.975 1.466-4.063 1.915-5.354 2.416.219 3.299-.715 4.316-1.173 4.476-2.008 8.908-6.033 9.056-6.215z"/><ellipse fill="#9F8FD4" cx="1294.774" cy="210.812" rx="11.163" ry="11.186"/><path opacity=".8" fill="#5140AE" d="M1299.037 208.926c-.43 0-.82.149-1.141.392l-4.525-3.326c.07-.197.115-.411.115-.632 0-1.044-.844-1.89-1.883-1.89a1.887 1.887 0 0 0-1.884 1.89c0 1.041.843 1.886 1.884 1.886.428 0 .818-.149 1.137-.39l4.531 3.322c-.07.198-.117.411-.117.636s.047.434.117.636l-4.531 3.321a1.878 1.878 0 0 0-1.137-.393 1.887 1.887 0 0 0-1.884 1.89c0 1.043.843 1.888 1.884 1.888a1.886 1.886 0 0 0 1.883-1.888c0-.226-.045-.435-.115-.638l4.525-3.322c.32.241.711.393 1.141.393 1.04 0 1.881-.845 1.881-1.887a1.882 1.882 0 0 0-1.881-1.888z"/><g fill="#5140AE"><circle opacity=".8" cx="1291.595" cy="205.352" r="1.875"/><circle opacity=".8" cx="1291.595" cy="216.276" r="1.875"/><ellipse opacity=".8" cx="1299.043" cy="210.812" rx="1.875" ry="1.882"/></g><path fill="#211355" d="M1238.148 199.471c-1.18 4.761 4.377 10.357 13.789 12.259 8.844 1.788 16.735.393 17.916-4.373 1.181-4.764-4.962-10.389-13.717-12.566-8.754-2.178-16.807-.084-17.988 4.68z"/><path fill="#FFF" d="M1242.234 199.67c-.529 1.256-1.553 3.932-2.284 5.898 2.133 2.787 6.495 4.895 11.864 6.161 5.342 1.259 10.123.926 13.345-.18.208-1.368.672-3.656.803-4.683 1.302-.584-24.021-7.692-23.728-7.196z"/><path fill="#FFF" d="M1242.319 198.107c-.593-2.862-1.478-14.22-1.282-16.195.197-1.977.889-4.545 2.071-5.532 1.181-.987 3.425-2.764 3.425-2.764s.317-1.878.714-2.568c.393-.69 2.462-2.667 2.956-3.16.492-.495 2.76-5.729 3.645-6.322.888-.591 2.958-1.776 3.45-1.875.491-.099.985-3.752 1.577-4.443s.986-2.271 3.252-2.471c2.267-.197 4.045.888 4.045.888s.686-3.159 1.375-3.75c.689-.595 2.267-1.186 3.352-1.284 1.082-.1 5.812-1.383 6.603-1.383.787 0 4.997.328 6.206 1.68.889.987.625 3.859-.491 4.64-1.117.78-2.3 1.779-4.55 1.976-2.251.199-3.334.297-3.334.297l-.4 2.864s3.309 2.074 4.563 3.161c1.256 1.085 2.636 1.876 3.325 3.062.69 1.184.887 2.172.69 2.962-.196.789 0 1.086-.787 1.875-.79.79-1.428 1.68-3.229 1.483-1.797-.198-4.563-1.68-4.563-1.68l-.486 2.37s3.014 1.759 3.449 2.667c.434.906.592 1.564.098 2.609-.491 1.045-.789 1.439-1.872 1.933-1.083.494-1.675.396-1.675.396s.383 1.777.486 2.271c.105.492 1.188 1.778 1.188 1.778l1.677-2.668s.149-2.243.869-3.711c.717-1.468 2.776-5.375 3.171-5.572.395-.198 2.068-2.568 3.251-2.764 1.184-.2 3.252 0 3.943 1.775.689 1.779.296 3.753 0 4.346-.297.592-1.774 5.628-1.971 6.419-.198.791-1.084 2.963-1.973 3.95-.887.988-1.086 1.384-1.381 2.965-.293 1.578-1.082 3.554-1.575 4.344-.492.791-1.612 2.667-2.137 3.062-.524.394-1.903 2.665-2.692 3.654-.788.987-5.099 4.734-6.935 5.429s-3.511.99-3.511.99l-.686 1.093-7.789 1.152s-8.914-.177-11.85-3.235c-2.933-3.06-4.117-4.441-4.117-4.441l-.095-2.273z"/><path opacity=".2" fill="#B6B3E0" d="M1274.455 171.886l.477-2.319s-1.979-1.316-2.754-1.854c-1.464-1.016-3.062-1.676-4.629-2.569-.715-.405-1.297-.979-1.99-1.381-1.138-.663-4.669-2.298-4.697-2.271 1.307 1.692 3.828 2.72 5.505 4.1 1.056.87 1.726 2.018 2.853 2.813 1.327.935 2.726 1.697 4.025 2.671.407.306.698.546 1.21.81zM1271.118 156.334c1.259.789 3.813 2.369 3.813 2.369l.4-2.864s1.083-.098 3.334-.297c2.25-.196 3.433-1.195 4.55-1.976.507-.354.836-1.141.962-1.987-1.082.231-3.924.881-6.771.783-.949-.032-2.488-.596-3.355-.275-.438.161-2.098.885-2.424 1.265-.871 1.015-.509 2.982-.509 2.982z"/><path opacity=".2" fill="#B6B3E0" d="M1289.031 170.652c-.691-1.775-2.76-1.976-3.943-1.775-1.183.195-2.856 2.565-3.251 2.764-.395.197-2.454 4.104-3.171 5.572-.72 1.468-.869 3.711-.869 3.711l-1.677 2.668s-.487-.581-.842-1.113c-.347-.403-.809-2.666-.833-2.937-1.555-.355-3.261-.985-4.336-1.308-1.823-.543-3.602-1.55-5.122-2.663-.755-.553-3.316-2.865-3.966-3.317-.978-.681-2.794-2.263-3.544-2.542-2.389-.885-5.742 1.113-5.742 1.113 3.319.487 6.324 4.15 9.126 5.854 1.457.885 3.791 5.094 3.953 7.601.087 1.347-2.023 5.492-6.333.595-.556-.63-1.211-.962-1.872-1.411-.979-.662-2.042-.682-3.135-.961-.84-.219-1.762-.561-2.506-.961-.205-.107-.679-.597-.887-.599-.645-.004-.332.338-.668.674-1.355 1.354-3.325.226-5.129.04-.024.026 2.465 1.534 3.465 1.71 2.039.363 2.344 2.168 2.453 2.792.706 3.984-6.633 2.718-6.199 4.271.345 1.237 2.428.262 3.46.739.948.436 1.079 1.392 1.283 2.298.368 1.646.386 3.163.075 4.842-.189 1.028-.322 2.001-.293 2.959-1.648-.519-3.307-.811-4.574-.161-1.888.967-2.969 3.308-3.403 4.568 2.086 2.808 4.229 4.165 10.184 5.811 6.667 1.842 14.424.064 14.424.064.149-1.808 1.013-4.646 1.013-4.646l.686-1.093s1.675-.296 3.511-.99 6.146-4.441 6.935-5.429c.789-.989 2.168-3.261 2.692-3.654.524-.396 1.645-2.271 2.137-3.062.493-.79 1.282-2.766 1.575-4.344.295-1.581.494-1.977 1.381-2.965.889-.987 1.774-3.159 1.973-3.95.196-.791 1.674-5.827 1.971-6.419.294-.593.688-2.566-.002-4.346zm-31.03 32.788c.666-3.357 1.195-6.729.872-7.99-.158-.616 3.199 3.094 2.545 6.367-.7 3.511-2.29 1.785-3.417 1.623z"/><path fill="#211355" d="M1290.206 328.092a1 1 0 0 1-1.416-.035l-.146-.153a1.002 1.002 0 0 1 .034-1.418l9.642-9.213a.999.999 0 0 1 1.416.039l.145.149c.383.4.366 1.038-.033 1.42l-9.642 9.211zM1311.99 299.615a.535.535 0 0 1 .018-.751l12.303-11.748a2.757 2.757 0 0 1 3.9.092 2.772 2.772 0 0 1-.094 3.909.53.53 0 1 1-.73-.769 1.705 1.705 0 0 0 .055-2.406 1.696 1.696 0 0 0-2.4-.06l-12.302 11.752a.527.527 0 0 1-.75-.019z"/><path fill="#8674C9" d="M1293.496 326.547l9.915-8.002-4.587-4.82-8.448 9.54z"/><path fill="#211355" d="M1303.411 318.545l21.931-20.952a3.005 3.005 0 0 0 .819-2.96l2.392-2.286a1.584 1.584 0 0 0 .055-2.239l-.23-.243a1.579 1.579 0 0 0-2.236-.053l-2.394 2.287a2.984 2.984 0 0 0-2.988.675l-21.935 20.951 4.586 4.82z"/><path fill="#8674C9" d="M1307.835 310.836l-1.114-1.172 10.377-9.912 1.116 1.173z"/><path fill="none" stroke="#FFF" stroke-width="1.062" stroke-linecap="round" stroke-linejoin="round" stroke-miterlimit="10" d="M1321.175 294.024l-21.567 20.522-7.876 8.824"/><path fill="#211355" d="M1347.889 388.338l-1.229-1.112c2.913-3.229 4.968-10.293 4.398-15.119-.206-1.749-1.45-4.212-2.655-6.593-1.227-2.431-2.498-4.945-2.835-7.001-.636-3.88 1.08-8.889 4.172-12.175 1.104-1.176 2.371-1.968 3.594-2.736 1.757-1.099 3.414-2.139 4.413-4.222 1.511-3.148 1.371-7.116 1.245-10.617l-.014-.429c-.33-9.604.91-18.348 2.322-27.202l.1-.824.718.958 1.015-1.485-.197 1.614c-1.397 8.771-2.628 17.426-2.303 26.883l.016.428c.13 3.689.278 7.877-1.409 11.395-1.208 2.515-3.149 3.732-5.027 4.91-1.188.743-2.308 1.445-3.268 2.465-2.761 2.937-4.298 7.364-3.742 10.77.295 1.803 1.508 4.2 2.68 6.519 1.327 2.625 2.581 5.108 2.821 7.148.626 5.316-1.578 12.837-4.815 16.425z" opacity=".5"/><path opacity=".7" fill="#5140AE" d="M1392.408 387.21c5.463-3.966-5.032-18.279-7.311-19.252-8.99-3.836-12.054 2.857-17.806 2.241-8.576-.92-18.025-10.819-24.323-12.586-8.996-2.524-16.371-1.702-22.587 6.508-3.218 4.247-3.117 8.979-1.26 13.466 5.508 2.009 9.993 5.781 19.172 8.215 13.904 3.686 29.19 4.824 38.854 1.025 9.665-3.798 9.798 4.349 15.261.383z"/><path fill="#B6B3E0" d="M933.177 315.127a.94.94 0 0 1-1.223.534l-48.022-18.875a.945.945 0 0 1-.533-1.225l11.79-30.125a.945.945 0 0 1 1.226-.536l48.02 18.875a.95.95 0 0 1 .533 1.228l-11.791 30.124z"/><path fill="#FFF" d="M944.434 283.775l-48.02-18.875a.946.946 0 0 0-1.226.536l-1.707 4.365 49.778 19.566 1.707-4.365a.95.95 0 0 0-.532-1.227zM894.007 296.886l-6.687-2.627 7.791-19.901 6.684 2.628z"/><path fill="#FF6D57" d="M934.417 303.503l-18.128-7.127 4.645-11.868 18.129 7.127z"/><path fill="#FFF" d="M931.274 311.536l-18.129-7.128 2.72-6.954 18.129 7.127z"/><path fill="#8674C9" d="M910.452 303.35l-13.367-5.254 4.927-12.598 13.371 5.256z"/><path fill="#321C80" d="M917.367 285.679l-13.368-5.254.874-2.23 13.366 5.256zM907.823 286.148l-5.255-2.067.872-2.227 5.257 2.066zM911.879 287.741l-2.626-1.031.871-2.23 2.628 1.034z"/><circle fill="#321C80" cx="897.033" cy="266.974" r=".675"/><circle fill="#B6B3E0" cx="898.933" cy="267.721" r=".675"/><path fill="#8674C9" d="M901.46 268.713a.675.675 0 0 1-1.256-.493.67.67 0 0 1 .874-.381.678.678 0 0 1 .382.874zM894.344 267.599l-.863 2.203 49.779 19.566.861-2.204z"/><path fill="#E2E4FF" d="M1050.91 226.76c.104-2.894-1.969-5.341-4.733-5.833 0 0-77.394-12.691-77.79-12.733-6.419-.668-8.298 2.764-8.438 6.694v294.285c0 3.821 3.09 6.916 6.902 6.916a6.86 6.86 0 0 0 2.844-.618l.01.008 76.496-32.441.019-.027c2.264-.704 3.954-2.756 4.044-5.263.002-.062-.012-.117-.012-.178l.018-.023.64-250.787z"/><path fill="#B6B3E0" d="M1047.148 238.104c-6.148-.667-61.357-6.649-71.886-7.796v261.184l71.886-28.406V238.104z"/><path fill="#FFF" d="M974.58 230.307v13.578c10.528 1.149 65.737 5.741 71.888 6.407v-12.189c-6.151-.667-61.36-6.649-71.888-7.796z"/><path fill="#321C80" d="M1014.364 225.427c-.016 1.659-.667 2.99-1.458 2.984-.791-.011-1.416-1.354-1.402-3.013.016-1.657.67-2.992 1.459-2.986.79.011 1.417 1.356 1.401 3.015z"/><path fill="#B6B3E0" d="M1016.524 486.526c-.041 4.164-1.682 7.506-3.663 7.492-1.982-.023-3.554-3.396-3.518-7.561.038-4.157 1.683-7.505 3.659-7.489 1.985.029 3.56 3.401 3.522 7.558z"/><path fill="#321C80" d="M1041.194 243.313c-.016 1.661-.67 2.992-1.46 2.986-.79-.008-1.418-1.353-1.402-3.011s.67-2.992 1.46-2.984c.789.009 1.415 1.353 1.402 3.009z"/><path opacity=".1" fill="#321C80" d="M990.662 304.279l-.085 39.262 42.428-2.529.082-36.917z"/><path fill="#FFF" d="M990.577 409.759v57.306l45.939-16.646.104-47.821z"/><g><path fill="#FFF" d="M990.577 354.185v46.111l46.065-7.164.098-41.699z"/></g><path fill="#FFF" d="M990.577 250.816v40.859l46.304.175.127-37.491z"/><path fill="#9B96E0" d="M1016.676 405.699l-26.099 4.06v57.306l26.099-9.457z"/><path fill="#321C80" d="M994.318 413.89v2.996l18.616-3.512v-2.996zM994.318 419.288v2.05l12.729-2.312v-2.051z"/><path opacity=".8" fill="#5140AE" d="M1016.676 352.629l-26.099 1.556v46.111l26.099-4.059z"/><path fill="#5140AE" d="M1016.676 252.808l-26.099-1.992v40.859l26.099.098z"/><g><g fill="none" stroke="#FFF" stroke-width=".695" stroke-miterlimit="10"><path d="M1011.648 261.321v-1.389l-1.385-.106"/><path stroke-dasharray="2.6621,2.6621" d="M1007.608 259.623l-9.29-.709"/><path d="M996.991 258.812l-1.386-.105v1.39"/><path stroke-dasharray="2.4816,2.4816" d="M995.605 262.578v18.612"/><path d="M995.605 282.432v1.389l1.39.005"/><path stroke-dasharray="2.6527,2.6527" d="M999.648 283.837l9.285.035"/><path d="M1010.259 283.877l1.389.006v-1.39"/><path stroke-dasharray="3.0245,3.0245" d="M1011.648 279.469v-16.635"/></g></g><path fill="none" stroke="#FFF" stroke-width=".695" stroke-miterlimit="10" d="M1016.676 273.85l-26.099-.991"/><path opacity=".3" fill="#FFF" d="M1046.605 238.104c-6.151-.667-71.892 253.388-71.892 253.388l71.892-28.406V238.104z"/><g><g fill="none" stroke="#FFF" stroke-width=".695" stroke-miterlimit="10"><path d="M1016.676 266.229l-1.386-.108"/><path stroke-dasharray="2.287,2.287" d="M1013.01 265.945l-7.981-.618"/><path d="M1003.89 265.239l-1.386-.107v1.389"/><path stroke-dasharray="2.6514,2.6514" d="M1002.504 269.173v19.886"/><path d="M1002.504 290.384v1.389"/></g></g><path fill="#8674C9" d="M967.749 208.151c-5.896-.376-7.666 2.942-7.8 6.736v294.285c0 3.821 3.09 6.916 6.902 6.916.304 0 .604-.025.897-.065V208.151z"/><path opacity=".5" fill="#5140AE" d="M1016.676 439.403a12.418 12.418 0 0 1-1.948-1.884c-1.952-2.362-2.641-7.72-5.759-7.456-2.829.237-4.06 6.573-5.435 9.991-2.409 6.005-4.733 2.071-5.687.345-.773-1.397-1.357-3.288-2.621-3.735-2.036-.717-3.445.128-4.649 2.178v28.224l26.099-9.457v-18.206z"/><path opacity=".8" fill="#5140AE" d="M1016.676 443.037c-4.531-.411-7.018-2.607-7.699-3.432-2.5-3.021-3.393-15.025-7.386-14.688-3.618.304-3.969 12.146-5.726 16.521-1.657 4.124-3.629 4.99-5.288 4.565v21.062l26.099-9.457v-14.571z"/><path fill="#5140AE" d="M978.799 240.423v1.29c1.953.213 6.406.618 11.778 1.092v-1.295c-5.129-.452-9.433-.844-11.778-1.087zM978.799 233.377v1.289c1.953.214 6.406.696 11.778 1.279v-1.289l-11.778-1.279zM978.799 236.817v1.289c1.953.213 6.406.697 11.778 1.279v-1.288c-5.372-.582-9.825-1.067-11.778-1.28z"/><g><path opacity=".8" fill="#5140AE" d="M997.317 368.307v17.819c.118 1.747 3.158 2.967 6.808 2.723 3.646-.247 6.494-1.859 6.385-3.604v-17.821l-13.193.883z"/><path fill="#321C80" d="M1004.125 371.027c-3.649.245-6.689-.974-6.808-2.721-.114-1.748 2.732-3.356 6.387-3.604 3.644-.244 6.688.978 6.806 2.72.109 1.747-2.739 3.36-6.385 3.605z"/></g><g><path fill="#9F8FD4" d="M994.924 379.636v11.752c.078 1.153 2.083 1.955 4.49 1.796 2.403-.164 4.282-1.229 4.209-2.377v-11.753l-8.699.582z"/><path fill="#321C80" d="M999.414 381.431c-2.407.16-4.412-.644-4.49-1.795-.073-1.152 1.803-2.214 4.212-2.376 2.402-.162 4.409.645 4.487 1.794.073 1.15-1.806 2.214-4.209 2.377z"/></g><g fill="#211355"><path opacity=".8" d="M1007.133 383.485v5.729c.061.929 1.676 1.574 3.613 1.444 1.933-.133 3.445-.986 3.391-1.914v-5.729l-7.004.47z"/><path d="M1010.746 384.93c-1.938.128-3.553-.517-3.613-1.444-.062-.928 1.45-1.782 3.386-1.913 1.938-.131 3.554.521 3.618 1.444.054.925-1.458 1.782-3.391 1.913z"/></g><path fill="none" stroke="#321C80" stroke-width=".347" stroke-miterlimit="10" d="M1010.633 381.708v-20.81M1003.625 364.921v-5.2"/><path fill="#FFF" d="M1012.473 360.641l-3.918.318v2.601l3.918-.61z"/><path fill="none" stroke="#321C80" stroke-width=".347" stroke-miterlimit="10" d="M998.515 379.054v-17.112"/><path fill="#FFF" d="M1000.381 361.664l-3.971.477v2.481l3.971-.615zM1006.057 357.128l-4.862.257v3.037l4.862-.568z"/><path opacity=".8" fill="#5140AE" d="M1020.14 261.136v1.317l14.036.855v-1.101zM1020.14 268.049v1.319l14.036.629v-1.099z"/><g fill="#5140AE"><path opacity=".8" d="M1028.048 264.91l-7.908-.603v1.318l7.908.48zM1029.937 265.054v1.165l4.239.26v-1.1z"/></g><path fill="#5140AE" d="M1033.087 358.327l-12.947.773v2.013l12.941-.771z"/><g fill="#5140AE"><path d="M1020.14 368.87l12.943-.947v-.889l-12.943.947zM1020.14 371.163l12.941-.948v-.898l-12.941.948zM1033.085 363.396l.002-1.076-12.947.992v1.032zM1020.14 366.587l12.945-.948v-.847l-12.945.946z"/></g><g><ellipse opacity=".5" fill="none" stroke="#FFF" stroke-width=".716" stroke-miterlimit="10" cx="1544.988" cy="127.469" rx="18.204" ry="18.242"/><ellipse opacity=".5" fill="none" stroke="#FFF" stroke-width=".695" stroke-miterlimit="10" cx="1544.989" cy="127.469" rx="25.808" ry="25.86"/><path opacity=".5" fill="none" stroke="#FFF" stroke-width=".695" stroke-miterlimit="10" d="M1578.142 127.469c0 18.349-14.844 33.221-33.154 33.221-18.31 0-33.153-14.872-33.153-33.221 0-18.351 14.844-33.225 33.153-33.225 18.31 0 33.154 14.874 33.154 33.225z"/><ellipse opacity=".8" fill="#FF6D57" cx="1544.989" cy="127.469" rx="11.754" ry="11.777"/></g><path opacity=".7" fill="#5140AE" d="M1425.352 296.326c.994-.896 2.278-5.711 3.396-7.696 2.441-4.344 4.844-6.418 8.752-9.458 4.883-3.793 13.75-8.622 14.407-15.601-4.469 2.841-9.352 5.225-14.32 7.197-5.929 2.356-10.622 3.029-13.544 9.098-1.648 3.421-3.737 16.113 1.658 16.81M1437.809 251.579c-1.22 1.33-3.373.201-5.496 1.163-2.668 1.209-3.377 4.104-5.132 6.646-.638.922-1.952 3.873-1.952 3.873 1.143 1.161 6.396-1.251 7.299-1.993 3.975-3.262 5.309-7.896 8.516-11.677l-3.235 1.988zM1533.382 188.256c-6.622 6.346-9.214 17.033-12.122 24.972-3.279 8.957-12.715 14.281-18.811 21.584-6.841 8.191-4.029 22.447-18.015 32.086-9.535 6.574-16.375 3.255-25.852 7.216-12.693 5.31-12.06 13.08-21.068 16.881-6.657 2.809-13.442 9.003-15.202 16.365l66.211-35.129c5.759-2.806 10.213-8.376 12.5-11.966 11.327-17.8 43.366-74.896 43.366-74.896-1.566 2.936-5.899 3.897-11.007 2.887z"/><path opacity=".5" fill="#FFF" d="M1515.2 170.882c-1.617 4.005-8.01 19.654-11.174 24.941-7.329 12.234-34.945 45.08-34.945 45.08s-16.348 3.808-23.96 6.51c.014.015-4.097 2.183-4.078 2.178 9.59-3.228 12.953-1.542 18.237-3.228 5.011-1.596 8.879 2.327 12.87-.229 7.309-4.685 8.194-12.219 10.302-15.121 4.152-5.727 7.927-6.932 12.846-12.245 7.899-8.531 5.433-17.938 17.322-28.278 2.76-2.4 5.189-5.996 7.159-9.304-3.618-3.433-5.446-7.328-4.579-10.304zM1421.551 257.221c.854-.869 3.105-2.401 3.678-3.509a.035.035 0 0 0 .006-.009c-3.896 2.425-7.572 2.041-10.26 2.38-8.679 1.101-35.18 10.6-35.18 10.6l.291.32c2.316 1.05 4.334 2.727 5.951 4.527 2.197 2.443 2.969 5.164 4.132 5.47 1.5.394 1.749-1.913 1.884-3.026.396-3.255-.168-6.121 3.553-6.577 4.004-.49 7.562.463 11.056-2.061 2.796-2.022 5.233-3.892 8.876-4.058 1.548-.069 2.428-.038 3.692-.95.92-.663 1.553-2.325 2.321-3.107zM1238.077 225.688c2.484-5.604 3.589-11.814 4.006-18.065-2.618-2.043-4.085-4.51-4.089-6.843-.012.064-11.173 60.5-13.268 83.748-.547 6.096-.748 18.146 7.054 23.832l-.076-.14c-3.639-6.955-4.006-10.698-4.613-16.976-.752-7.763 5.276-16.428 6.834-23.823 1.587-7.518-.851-15.045-.475-22.723.363-7.427 1.739-12.495 4.627-19.01z"/><path opacity=".7" fill="#5140AE" d="M1268.282 272.663a51.585 51.585 0 0 0-5.737-.691c.688-12.592-.818-21.272-.038-28.717.519-4.946 4.717-23.354 5.855-30.562.21-1.327 1.335-4.358 1.491-5.336-1.181 4.766-9.032 5.94-17.916 4.373a28.313 28.313 0 0 1-1.914-.41h-.002c3.412 3.55 10.234 3.752 1.082 7.146 1.725 2.682 5.006 2.947 6.938 5.332 2.099 2.598 2.152 6.528 1.367 9.646-1.743 6.918-7.394 10.994-5.958 18.896.636 3.495 2.86 6.349 3.441 9.945.55 3.413.667 7.022.805 10.482.146 3.686-.757 4.729-2.588 7.901-1.903 3.299-2.208 6.557 2.297 3.065.09-.072.183-.156.272-.25.032-.029.061-.065.091-.1.062-.068.124-.137.188-.214.032-.04.066-.086.101-.128.058-.079.121-.158.181-.243.029-.044.061-.087.092-.13.064-.098.134-.197.204-.301l.054-.086c1.039-1.595 2.168-3.796 3.631-4.336.166-.06.334-.106.508-.12 3.664-.314 1.014 4.758 4.499 4.442 2.907-.262 3.809-6.994 4.383-9.19.017-.062.036-.121.054-.183-.949.062-2.054.004-3.381-.231z"/><path opacity=".5" fill="#FFF" d="M1341.986 270.081c1.234-2.413 2.557-3.951 4.169-5.467-1.255.029-2.498.064-3.726.106a192.985 192.985 0 0 0-5.478.263c-14.075.564-28.809.391-45.301 4.616-2.863.734-4.229.152-5.751-.369.292.19.571.356.817.477 1.876.922 4.86 1.001 6.916 1.535 5.892 1.534 10.922.779 16.717-.267 3.226-.581 6.438-1.162 9.794-1.062 3.643.108 9.029-.661 12.12 1.269 2.088 1.307 2.954 3.472 5.959 2.748 2.012-.484 2.906-2.172 3.764-3.849z"/><g><path fill="#B6B3E0" d="M1213.119 373.446s.75 9.208.836 11.059c.014.34.995.817 3.968 1.339 2.572.449 6.493 1.724 9.575.729 1.525-.495 1.189-2.53-.667-3.066-2.319-.669-3.913-1.836-6.685-3.098-1.812-2.617-1.325-5.772-1.325-5.772l-5.702-1.191z"/><path fill="#211355" d="M1217.148 346.797c-.344-2.146-2.227-3.753-4.234-3.92-1.326-.013-2.965.325-3.196.382-2.804.686-21.53 5.394-32.993 11.456-2.345 3.812.102 9.664 2.168 11.768 2.802 2.855 8.253 3.294 16.586-2.601 3.682-1.438 7.938-4.225 11.4-6.723 1.378 5.104 4.544 10.262 6.013 22.1.243 1.963 7.052-.596 7.052-.596s-1.622-24.539-2.796-31.866z"/><path fill="#B6B3E0" d="M1233.801 366.005l10.393 2.416s1.643.086 3.344-2.412c1.472-2.165 3.202-5.147 2.394-8.592-.368-1.565-1.876-2.467-3.129-.992-1.566 1.84-1.841 3.271-3.774 6.043-3.128.574-5.791-1.174-5.791-1.174l-3.437 4.711z"/><path fill="#321C80" d="M1213.303 351.962c-.588-.16-4.264-2.4-13.762 1.123-7.132 2.649-18.5 5.582-26.232 9.671-2.344 3.811.102 9.664 2.17 11.769 2.802 2.855 8.25 3.293 16.585-2.601 5.825-2.273 13.092-7.928 16.368-10.469.469.44 1 .849 1.6 1.21 7.545 4.535 12.885.931 28.955 5.951 1.885.588 2.814-6.073 2.375-6.681-.444-.607-20.916-8.018-28.059-9.973z"/><path fill="#FFF" d="M1183.721 327.853l1.777-3.094s-.393-3.004-.268-3.644c.134-.685.619-.842 1.262-1.107.297-.118 1.282-.339 1.64-.582 1.263-.865 1.263-2.019 2.222-1.866.476.076.908 1.164 1.285 1.701.178.252.539 1.3.391 1.813-.102.356-.803 1.203-.803 1.203s-.364 1.474-.682 1.852c-.317.377-1.748 1.43-1.822 1.56-.073.131-.948 3.472-1.715 4.658-.201.314-3.287-2.494-3.287-2.494z"/><path opacity=".8" fill="#FFF" d="M1191.844 330.99c-.002-.01 0-.02-.004-.03h-.004l-4.648-26.388-.036-.225c-.002-.002-.002-.004-.002-.006-.054-.351.165-.605.515-.68.014-.001.535-.103.535-.103l7.215-1.462.004.001a.658.658 0 0 1 .756.518c.002.008.002.017.002.025l.004.001 4.787 27.3a.662.662 0 0 1-.623.795l-.002.002-7.798.784-.011-.009a.656.656 0 0 1-.69-.523z"/><path fill="#B6B3E0" d="M1191.175 331.055c-.004-.008-.002-.018-.006-.025v-.001l-4.615-26.323-.034-.226c0-.004 0-.006-.002-.009-.055-.351.197-.676.547-.747l7.721-1.495.002.002a.66.66 0 0 1 .758.539l.002.002 4.751 27.236a.662.662 0 0 1-.625.797l-.002.002-7.8.784-.009-.01a.653.653 0 0 1-.688-.526z"/><path opacity=".8" fill="#FFF" d="M1187.314 305.467l7.585-1.425s4.349 24.775 4.329 24.856l-7.646.816-4.268-24.247z"/><ellipse transform="rotate(168.55 1190.714 303.922)" fill="#211747" cx="1190.723" cy="303.939" rx=".15" ry=".247"/><path opacity=".8" fill="#5140AE" d="M1194.881 330.348c.071.352.303.599.513.555.215-.044.327-.364.256-.717-.074-.353-.305-.601-.518-.556-.213.042-.325.363-.251.718z"/><path fill="#8472C7" d="M1188.791 306.658l4.912-.923.73 4.15-4.914.913c-.277-1.574-.526-2.998-.728-4.14z"/><path fill="#B6B3E0" d="M1191.14 319.334l4.952-.785.891 5.055-5.012.534c-.151-.885-.453-2.633-.831-4.804z"/><path fill="none" stroke="#8472C7" stroke-width=".695" stroke-miterlimit="10" d="M1189.942 312.633l3.558-.661M1190.256 314.369l5.008-.912M1190.646 316.241l3.743-.694"/><path fill="#211355" d="M1173.458 340.426c2.833-4.177 11.268-14.549 11.268-14.549s2.208.115 3.567 2.159c-3.904 9.528-5.781 13.551-8.237 16.447-.904 1.067-3.865 3.407-5.825 2.353-2.387-1.286-2.061-4.512-.773-6.41z"/><path fill="#FFF" d="M1160.312 328.11c.404-2.25-1.647-9.399-1.647-9.399l-1.359-9.193s7.188-2.522 9.183-3.545c.545.503 2.738 2.136 2.188 4.751-.455 2.164 1.723 2.686 1.851 2.788.383.298-.175 1.018-.723 1.357.384 1.798.482 2.71.426 3.909-.044.959-.597 1.152-1.177 1.356-.844.296-2.306.624-2.956 1.402-.744.892-.044 3.563-.044 3.563l.522 3.267s-1.053.295-2.367.561c-2.023.313-4.109.368-3.897-.817z"/><path opacity=".2" fill="#B6B3E0" d="M1160.312 328.11c.404-2.25-1.647-9.399-1.647-9.399l-1.359-9.193s5.684-2.365 7.676-3.388c.547.504 3.366 2.307 2.817 4.922-.457 2.163 2.6 2.357 2.728 2.46.383.298-.175 1.018-.723 1.357.384 1.798.482 2.71.426 3.909-.044.959-.597 1.152-1.177 1.356-.844.296-2.306.624-2.956 1.402-.744.892-.044 3.563-.044 3.563l.522 3.267s-1.053.295-2.367.561c-2.022.313-4.108.368-3.896-.817z"/><path fill="#321C80" d="M1160.323 326.12c1.721.317 3.103-.412 5.7-1.61 4.631 3.067 9.55 2.361 13.933 6.289 3.124 2.797 3.363 5.25 2.639 6.963-1.483 3.506-2.539 6.722-.707 13.119.965 3.382 4.663 5.639 5.427 6.406 3.793 3.811-6.495 8.368-7.444 8.688-4.21 1.41-7.763 1.999-11.617-.749-7.479-5.334-10.947-20.672-10.856-28.233.086-7.276 2.925-10.873 2.925-10.873z"/><path fill="#FFF" d="M1194.389 325.304l1.775-3.094s.082-1.241.206-1.882c.134-.686-.709-3.162-.28-3.712 1.07-1.376 1.432 2.789 2.07 1.697.773-1.321-.457-3.591.5-3.438.479.072 1.273.95 1.651 1.488.179.253.219 2.521.068 3.036-.103.354.442 1.421.278 2.093-.124.506-1.191 1.519-1.267 1.648s-.95 3.473-1.716 4.654c-.199.316-3.285-2.49-3.285-2.49z"/><path fill="#321C80" d="M1195.394 323.327s-6.244 7.677-9.792 12.482c-4.506-3.22-11.994-7.335-15.843-8.605-4.624-1.532-7.765 2.601-5.302 6 2.57 3.544 14.292 9.03 20.061 10.841.119.085.636.089.786.13 2.376.627 4.514-1.172 5.418-2.24 2.456-2.897 4.332-6.92 8.238-16.45-1.356-2.042-3.566-2.158-3.566-2.158z"/><path fill="#211355" d="M1166.627 305.502c-.107-2.008-1.467-3.588-3.536-4.403a5.391 5.391 0 0 0-1.458-1.023c-2.344-1.156-6.458-1.546-10.342 1.157-.277.191-.558.414-.846.654-3.347 2.824-7.782.859-7.782.859 1.677 1.039 3.031 1.419 4.158 1.419 1.815 0 3.214-.64 4.203-1.446.278-.226 1.286-1.049 2.444-1.551 2.513-1.093 4.512-1.118 6.143-.663-1.641.02-3.455.394-5.324 1.231-2.411 1.079-2.98 3.79-8.182 3.489-1.294-.072-2.338-.908-3.61-1.343-2.198-.758-2.804-.263-3.651.805-1.123 1.411-5.183 3.768-8.287 2.973.968 1.559 3.408 2.774 5.525 2.275-1.867 4.763-9.887-2.05-11.775 3.524-.762 2.25 2.02 4.737 4.811 4.891 1.607.092 3.818.007 5.188.866 1.577.989 2.681 4.031 4.481 4.315 1.318.208 2.654-.048 3.878-.665 1.136-.572 2.135-1.274 3.56-1.343 2.635-.124 2.305 1.588 4.662 1.468 1.392-.071 1.926-1.121 3.006-1.865 1.18-.815 2.133-.182 3.027.352 1.04.621 2.584.636 2.584.636s2.312-.423 2.945-.858c1.216-.84 1.541-2.037 2.056-5.546 0 0-.848-.146-1.24-.994-.189-.412-.488-.513-.418-.976.23-1.548.832-1.652.978-1.703.343-.114.606-.053.998.298.198.18-.208-.533.427-1.564.821-1.332-1.131-3.308-.702-3.804 1.13-.275 2.122-.612 2.079-1.465z"/><g><path fill="#8674C9" d="M1149.028 300.562c-.954-.255-2.017-.896-3.191-2.191 0 0 3.3 2.734 6.798 1.002a7.39 7.39 0 0 1 .868-.386c5.275-1.822 8.597.204 9.588 2.111.602 1.154-1.247-2.744-7.726-1.677-1.101.182-2.148.681-2.436.816-1.027.49-2.363.736-3.901.325z"/></g><g><path fill="#8674C9" d="M1146.105 305.226c-1.294-.072-2.338-.908-3.61-1.343-2.198-.758-2.804-.263-3.651.805-1.123 1.411-5.183 3.768-8.287 2.973.241.388.573.753.966 1.077 1.213-.001 2.657.075 3.842-.261.967-.274 1.687-.459 2.404-1.111a29.071 29.071 0 0 1 1.696-1.393c1.642-1.226 2.17-1.229 5.019-.584.499.113 1.351.069 1.898-.155-.095-.003-.18-.003-.277-.008z"/></g><path fill="none" d="M1124.451 317.528a.737.737 0 0 0-.145.158c.01.032.01.064.02.095l.125-.253z"/><path fill="#8674C9" d="M1136.11 309.967c-.019.011-.038.02-.056.029-1.916 4.637-9.869-2.087-11.748 3.464-.256.754-.107 1.534.303 2.246.195-2.297.727-2.729 1.373-3.05 1.724-.85 5.738.44 7.402.378 1.588-.058 1.96.138 3.23-.896 1.076-.881 1.892-2.852 1.855-3.568-.7.874-1.971 1.159-2.359 1.397zM1145.164 307.387c-1.922.461-2.688 1.972-3.264 3.665l.124-.253c1.002-1.235 1.647-1.506 2.343-1.947.712-.448 1.562-.351 2.357-.281.997.09 2.056.463 2.993.023.619-.288 1.065-.804 1.417-1.421-1.242 1.335-4.347-.176-5.97.214z"/><path fill="#211355" d="M1194.061 330.37c-3.902 1.589.328 5.034-4.838 9.462-1.959 1.677-3.459 4.718-11.546-2.216-3.459-2.967-6.726-2.391-9.416-2.812-2.702-.422-3.11-1.474-4.007-1.908 4.923 5.932 20.115 11.104 20.264 11.148 3.121.965 5.3-1.042 6.204-2.11 2.456-2.897 4.332-6.92 8.238-16.45-.042-.062-1.062-1.119-1.104-1.18.242 1.785-2.187 5.411-3.795 6.066z"/><path opacity=".8" fill="#151236" d="M1228.373 385.792c-.348-.292-.815-.502-1.618-.571-1.403-.118-4.753.204-6.514-.376-1.102-.364-2.808-.532-3.901-.632-.833-.076-1.797-.209-2.369.357.135.335 1.172.785 3.952 1.273 2.572.449 6.493 1.724 9.575.729.455-.151.744-.436.875-.78z"/><path opacity=".7" fill="#8674C9" d="M1172.546 366.492c-1.033-2.483-4.05-4.102-5.918-5.909-3.149-3.052-4.139-7.968-4.354-12.325-.17-3.386-1.299-4.228-2.694-7.339-1.846-4.126-.97-9.888.591-14.577-.593.869-2.699 4.396-2.773 10.65-.091 7.562 3.377 22.899 10.856 28.233 1.518 1.079 2.989 1.641 4.472 1.841a3.74 3.74 0 0 0-.18-.574z"/><path fill="#211355" d="M1236.235 363.08c-3.91-.191-5.687.754-11.623-.8-2.822-.739-4.741-2.809-7.604-3.165-2.686-.334-4.007 1.169-6.241 1.245-1.844.059-3.195-1.365-5.193-1.245-2.376.143-2.549 1.048-4.141 2.539-1.645 1.54-3.137 2.621-5.446 2.924-2.337.306-5.218 1.929-6.045 4.37-1.462 4.316-3.102 5.195-6.214 7.178 2.363-.616 5.135-1.939 8.335-4.202 5.825-2.273 13.092-7.928 16.368-10.469.469.44 1 .849 1.6 1.21 7.545 4.535 12.885.931 28.955 5.951 1.156.36 1.948-1.998 2.291-4.021-1.763-.875-3.563-1.444-5.042-1.515z"/></g><path fill="#FFF" d="M1394.475 224.971c-.51-3.248-.01-11.798-2.815-13.501-2.607-1.581-7.511-1.442-8.888-1.397-5.569.179-12.237 2.377-15.457 2.629-2.265.176-6.805-2.871-9.074-2.828-2.287.041-7.739 4.253-9.729 5.383-1.559.884-4.185.924-6.443 1.717-4.434 1.555-4.557 7.933-3.35 12.267.137.48.7-1.136.137.48-.05 0 2.318 8.426 2.318 8.426-3.264.67-1.684 2.543-1.263 4.773.149.781.138 1.603.454 2.376.34.831.981 1.507 1.309 2.347.705 1.806.219 4.521 2.359 5.302.328.119.725.337 1.088.334 1.711 4.58 6.707 14.956 17.554 17.651 4.483 1.115 8.424.399 11.39.058 2.498-.289 9.777-2.376 9.777-2.376s3.193-2.337 4.073-3.313c2.237-2.483 4.057-6.213 5.441-12.224 1.383-6.015.989-12.264.989-12.264s.741-11.93.13-15.84z"/><path opacity=".2" fill="#B6B3E0" d="M1388.832 244.154c-.273-4.891-1.34-6.309-1.203-10.182.188-5.363 3.021-10.842-.733-14.777-5.02-5.27-10.011 3.643-25.253 1.154-2.632-.43-8.287.131-10.404 2.029-4.013 3.594-2.311 6.711-3.45 9.519-2.869 7.081-2.175 13.669-1.512 20.681.277 2.921.866 6.07 1.916 9.021 2.854 3.939 7.079 7.828 13.124 9.33 4.486 1.115 8.423.399 11.391.058 2.283-.264 8.543-2.025 9.605-2.327 6.059-5.962 6.847-18.561 6.519-24.506z"/><g fill="none" stroke="#1B1464" stroke-width="1.657" stroke-linecap="round" stroke-linejoin="round" stroke-miterlimit="10"><path d="M1371.579 238.975c.086 1.46-1.656 3.374-4.108 3.747l-9.069.53c-1.456.084-4.149-1.177-4.349-4.553l-.086-1.47c-.141-2.423 2.853-3.675 4.311-3.758l9.707-.568c1.458-.084 3.361 2.032 3.447 3.496l.147 2.576zM1378.921 238.954a2.645 2.645 0 0 0 2.796 2.489l10.741-.624c1.456-.087 3.987-1.652 3.791-5.027l-.136-2.319c-.086-1.463-1.976-2.539-3.436-2.456l-10.937.641c-1.46.083-3.103 2.409-3.019 3.87l.2 3.426zM1354.559 235.379l-11.952 2.531M1379.122 233.581a6.368 6.368 0 0 0-9.013.392"/></g><path fill="#FF6D57" d="M1392.822 196.176c-5.812-3.918-11.209-8.419-14.5-14.621-1.801 2.592-3.336 8.32-2.309 10.244-1.422-.925-5.742-3.567-6.882-4.955-1.272-1.544-1.901-3.278-3.665-4.43-.183 3.083 1.559 5.963 1.248 8.791-2.208-3.114-2.278-5.09-6.101-5.972 2.077 1.291-.267 4.1-.421 6.364-.929-.983-1.763-2.537-1.88-3.718-.407 1.693-.86 3.699-.751 5.488-1.152-1.975-2.607-4.942-4.42-6.363-.043 1.563-.146 3.532.191 5.056.428 1.944 2.192 3.315 3.057 5.116-3.609-.312-7.088-4.68-8.613-7.759-.49 2.561.468 4.459.182 6.995-.801-1.445-2.019-2.121-3.563-2.846-1.038 3.391-2.581 6.598-3.405 10.151-.229-2.721-1.874-5.867.043-8.278-4.039 3.7-5.365 5.808-5.406 11.357-.166-2.108-1.742-1.477-2.108-3.662-2.465 4.725-3.722 6.822-3.75 12.17-.026 4.934 1.646 8.679 3.45 13.184 1.709 4.26 3.752 7.981 6.911 15.973.365.922-.438-2.608-.183-5.09.162-1.543.682-1.018.67-1.086-.012-.064 2.415 4.909 2.403 4.845-.01-.055.681.703.731-.825.052-1.544-1.523-6.58-1.11-8.511.822-3.846 3.237-5.189 2.596-8.791-.52-2.917-.153-6.637 2.551-8.377 1.924-1.24 8.415-1.726 10.704-1.767 4.351-.081 8.611.667 8.857.682 4.784.279 6.354.725 12.738-.953 1.33-.35 4.379-2.479 7.402-2.096 6.655.846 7.188 14.586 7.214 16.008l-.002.002c1.578-10.213 4.465-13.501 5.174-16.423 1.631-6.684-1.627-12.245-7.053-15.903z"/><g opacity=".4" fill="#FFF"><path d="M1394.704 228.501v-.002l-.002.004zM1392.822 196.176c-5.799-3.91-11.183-8.399-14.477-14.576 1.271 6.608 3.411 13.834 9.813 16.871 13.861 6.578 6.534 29.444 6.545 30.028 1.576-10.211 4.463-13.497 5.172-16.419 1.631-6.685-1.627-12.246-7.053-15.904z"/></g><path opacity=".5" fill="#FF312B" d="M1394.568 226.209c1.547-6.478 1.122-14.03-2.516-17.925-6.01-6.43-8.836 3.559-14.314-.278-3.049-2.133-7.629-6.151-13.531-2.957-3.182 1.72-4.582 3.697-8.138 3.34-2.86-.289-7.981-2.205-10.736-.532-4.968 3.02-2.491 10.999-3.307 15.447-.36 1.964-1.675 2.824-2.191 4.474-.913 2.893-.301 6.905.935 10.81.527 1.054 2.261 4.599 2.251 4.544s.681.703.731-.825c.052-1.544-1.523-6.58-1.11-8.511.822-3.846 3.237-5.189 2.596-8.791-.52-2.917-.153-6.637 2.551-8.377 1.924-1.24 8.415-1.726 10.704-1.767 4.351-.081 8.611.667 8.857.682 4.784.279 6.354.725 12.738-.953 1.33-.35 4.379-2.479 7.402-2.096 5.258.669 6.694 9.384 7.078 13.715z"/><path opacity=".4" fill="#FFF" d="M1333.337 223.461c-.234-4.458 1.413-5.222.411-9.466-.426-1.807-1.068-4.713.528-5.97.042 1.546 2.099 3.588 2.603 5.058-.957-3.968-.245-6.529.427-9.713.403-1.912.994-3.865 1.592-5.827-2.385 2.597-3.237 4.834-3.271 9.255-.166-2.108-1.742-1.477-2.108-3.662-2.465 4.725-3.722 6.822-3.75 12.17-.026 4.934 1.646 8.679 3.45 13.184 1.004 2.504 3.984 9.101 5.38 12.212-2.007-4.471-5.106-14.232-5.262-17.241z"/><g fill="#211355"><path d="M1263.812 449.936c-.097.099-10.219 2.094-15.431 4.694-.656.33-9.854 2.328-10.375 2.563-19.03 8.504-5.767 35.525 4.727 34.675 8.904-.721 10.051-.603 17.219-.395 3.346.099 13.524 1.044 17.223 1.084 1.498.23 12.759-1.018 14.746-1.278 8.74-2.847 13.658-10.134 16.637-19.139 1.915-5.797 4.466-11.659-1.832-18.679-7.527-8.388-34.239-12.484-42.914-3.525zM1282.06 492.608l.087-.019a2.659 2.659 0 0 1-.082.011l-.005.008z"/></g><g><path fill="#211355" d="M1263.812 449.936c-.097.099-29.346 7.612-29.765 8.003-11.769 11.083-1.808 34.78 8.686 33.93 8.904-.721 10.051-.603 17.219-.395 3.346.099 13.524 1.044 17.223 1.084 1.498.23 12.759-1.018 14.746-1.278 8.74-2.847 13.658-10.134 16.637-19.139 1.915-5.797 4.466-11.659-1.832-18.679-7.527-8.389-34.239-12.485-42.914-3.526z"/></g><path opacity=".4" fill="#B7A4F7" d="M1297.957 372.747c-5.146 6.285-7.084 16.281-11.33 29.142-5.131 15.547-7.256 31.863-11.01 36.824-.562.743-1.569 3.312-2.765 6.877-3.725.757-6.923 2.158-9.041 4.346-.097.099-29.346 7.612-29.765 8.003-1.396 1.315-3.48 3.027-3.48 5.854 8.498-3.994 14.919-2.373 20.514-4.856 26.445-11.748 27.316-5.728 31.151-6.528 1.119-2.429-3.964-7.864-.085-12.775 6.633-8.4.979-16.783 8.811-29.624 3.457-5.672 2.645-9.774 3.322-16.566.369-3.712 2.304-13.841 9.038-17.367.933-.489-4.873-.503-5.36-3.33z"/><path opacity=".5" fill="#211355" d="M1240.436 486.196c.326-2.865 3.481-14.497 1.855-20.695-2.406-1.599-4.531.011-7.743.065-2.854.049-2.309-.911-5.817 0-5.269 1.369-11.459 8.087-11.114 15.705.22 4.856 4.357 16.791.786 14.954-1.087-.559-.155-4.584-2.435-2.982-1.645 2.447-2.306 5.744-2.267 8.859.041 3.171.942 7.843 1.702 10.979 1.265 5.228 7.962 8.128 10.896 4.512 1.23-1.518 2.434-6.072 4.318-9.126a29.764 29.764 0 0 1 1.439-3.037c5.455-9.891 8.154-17.237 8.38-19.234z"/><path opacity=".7" fill="#5140AE" d="M1290.792 287.021c-1.958 2.581 7.167 12.209 2.679 12.605-3.54.314-4.056-4.329-7.57-2.95-3.094 1.212-2.506 2.745.141 6.265 1.34 1.78 3.404 3.658 3.711 5.624a3.218 3.218 0 0 1-.325-.204c-1.938-1.413-4.611-3.956-7.07-3.714-4.87.483-5.53 4.725-10.505 4.749-6.244.03-10.022-3.933-15.729-5.163-6.664-1.438-11.91 5.014-18.689 4.003-2.011-.301-3.68-.521-3.877.423-.154.549 1.297 1.253 3.086 2.014 5.205 2.214 16.115 5.173 33.041 4.894 8.439-.141 17.567-1.621 21.752-2.383l.736.274c4.997-.824 9.717-3.97 9.732-9.442.014-4.975-6.551-19.491-11.113-16.995z"/><path fill="#211355" d="M1089.309 451.642l6.745 8.174s2.836 2.725 1.649 6.968c-1.649 5.89-1.649 11.418-1.649 11.418s-2.593 8.174-5.306 9.133c-2.041.722-4.557 0-4.918-2.156-.223-1.336 0-5.416 0-5.416s-1.799-8.651-1.438-12.737c.044-.479-.544-6.009-.544-6.009l-1.735-6.249 7.196-3.126zM1119.463 439.307l10.121 3.097s3.867.71 5.207 4.908c1.861 5.826 4.898 10.438 4.898 10.438s2.327 8.254.589 10.554c-1.306 1.727-3.804 2.516-5.288.913-.92-.991-2.148-3.447-2.976-4.52-1.957-2.534-6.256-6.227-8.203-9.838-.228-.423-3.757-4.715-3.757-4.715l-4.881-4.259 4.29-6.578z"/><path fill="#8674C9" d="M1033.224 343.83l-5.962-.259s-3.893-3.254-4.908-3.651c-1.086-.423-1.743.118-2.695.796-.436.308-1.628 1.511-2.298 1.801-2.354 1.014-3.981-.02-4.626 1.475-.322.743.826 2.331 1.248 3.351.191.478 1.348 1.932 2.211 2.183.591.175 2.417-.056 2.417-.056s2.406.804 3.226.693c.819-.109 3.59-1.193 3.843-1.179.248.011 5.426 1.091 8.114 1.748.608.147-.57-6.902-.57-6.902z"/><path fill="#211355" d="M1074.248 314.716c-4.852 7.163-14.709 25.431-15.698 32.877-1.03 7.786 7.064 8.984 10.119 5.369 6.126-7.254 18.283-27.222 18.557-34.877.249-7.038-8.846-9.271-12.978-3.369z"/><path fill="#211355" d="M1074.248 314.716c-4.852 7.163-14.709 25.431-15.698 32.877-1.03 7.786 7.064 8.984 10.119 5.369 6.126-7.254 18.283-27.222 18.557-34.877.249-7.038-8.846-9.271-12.978-3.369z"/><path fill="#321C80" d="M1060.95 346.946c.988-7.442 10.847-25.712 15.696-32.875 1.388-1.98 3.336-3.043 5.301-3.314-2.582-.361-5.479.639-7.353 3.314-4.851 7.163-14.71 25.433-15.695 32.875-.744 5.604 3.237 7.794 6.667 7.238-2.762-.446-5.212-2.74-4.616-7.238z"/><g><path fill="#FF312B" d="M1091.859 362.201s-12.25 1.166-15.662 7.202c-6.432 18.831-2.302 49.113-2.284 49.179 2.309 10.37 15.471 7.876 16.66-3.389.212-2.632 6.937-20.587 6.965-30.207 7.625-15.34-5.679-22.785-5.679-22.785z"/></g><path fill="#FF6D57" d="M1077.848 424.488c9.244 6.807 39.141 25.528 39.141 25.528s5.301-4.213 6.754-10.22c-10.801-7.623-19.669-21.94-35.431-26.283-11.197-3.083-17.013 6.156-10.464 10.975z"/><path fill="#FF312B" d="M1077.848 424.488c9.244 6.807 39.141 25.528 39.141 25.528s5.301-4.213 6.754-10.22c-10.801-7.623-19.669-21.94-35.431-26.283-11.197-3.083-17.013 6.156-10.464 10.975z"/><g><path fill="#FFF" d="M1022.923 300.615v41.992l22.317-1.33.09-40.758z"/><path opacity=".8" fill="#5140AE" d="M1026.533 307.365v28.462l15.127-.901.061-27.627z"/><path fill="#FF312B" d="M1022.923 342.607v-41.992l-24.431.111-.096 43.346 24.527-1.465z"/><path fill="#FF6D57" d="M1018.182 334.776l-7.646-25.723-7.398 26.621 15.044-.898z"/><path opacity=".5" fill="#FF6D57" d="M1011.205 331.87l-5.17-17.393-5.002 18 10.172-.607z"/><path opacity=".5" fill="#FFF" d="M1019.02 325.772l-3.653-12.292-3.535 12.72 7.188-.428z"/></g><path fill="#FF6D57" d="M1062.715 416.305c3.979 10.784 18.643 42.912 18.643 42.912s6.739-.591 11.252-4.803c-4.824-12.323-4.359-29.171-15.128-41.494-7.651-8.753-17.582-4.251-14.767 3.385z"/><path fill="#FF6D57" d="M1108.643 372.05s-16.152-4.715-22.314-1.561c-11.651 18.377-23.628 38.649-23.648 38.714-3.772 9.932 8.582 15.112 15.766 6.369 1.624-2.083 17.104-13.358 22.414-21.372 14.795-8.595 7.782-22.15 7.782-22.15z"/><path fill="#FF6D57" d="M1097.538 384.986c1.693-3.409 2.353-6.424 2.354-9.059-2.58 3.467-5.649 6.326-6.725 10.58-1.154 4.562-.739 9.68-1.659 14.331-.792 4.001-5.827 12.297-2.62 15.53 1.081 1.093 3.908 1.497 5.316 2.495 1.129.799 1.729 1.909 2.926 2.787 3.033 2.219 5.68 3.646 8.401 6.293 4.248 4.133 11.015 12.218 17.819 13.159.147-.425.283-.858.391-1.307-10.23-7.221-18.734-20.444-32.998-25.51 1.068-4.514 6.769-20.439 6.795-29.299z"/><path fill="#FF312B" d="M1102.708 367.423s-10.218-.088-16.38 3.066c-11.651 18.377-23.628 38.649-23.648 38.714-.881 2.321-.875 4.378-.266 6.062.075.338.168.683.301 1.039 3.979 10.784 18.643 42.912 18.643 42.912s4.182 1.319 8.696-2.893c-4.571-11.675-5.829-29.67-14.956-41.772 3.372-3.183 16.752-15.162 21.643-22.544 14.794-8.594 5.967-24.584 5.967-24.584z"/><path fill="#321C80" d="M1107.41 306.13c2.346 1.188 2.405 4.454 4.436 11.143 2.031 6.69 0 22.104 0 22.104l-1.543 9.889v9.598s2.445 2.577 2.445 5.524c0 1.396-.495 3.932-1.192 5.017-.533.826-2.913 2.646-2.913 2.646l-22.501-2.646h-9.944s-1.1-1.98-.254-4.482c.709-2.102.842-2.038 1.476-3.481 1.24-2.831 1.908-3.401 2.215-5.485.329-2.235-.581-8.146-.581-9.018 0-.871-3.426-11.248-3.955-15.122-.469-3.458 0-13.961 0-13.961s-.082-4.884 2.097-5.715c1.471-.563 4.919-3.3 15.415-5.625 3.508-.779 11.59-2.009 14.799-.386z"/><path opacity=".9" fill="#8674C9" d="M1085.146 310.878l-3.586-5.093-1.547-1.797s-2.924.978-3.941 1.001c-.582.014-1.378-.28-1.818-1.472-.442-1.191-2.935-8.057-3.41-12.234-.706-6.208-.401-8.348-.401-8.348l9.791-2.836h3.536c.441 0 2.432.443 2.432.443s3.312.887 4.529 3.876c1.213 2.987.771 12.289.771 12.289s2.208 6.495 4.189 9.854c.147.254.926.611-.493 1.799-7.366 5.097-10.052 2.518-10.052 2.518z"/><path opacity=".5" fill="#211355" d="M1086.142 369.403l17.444 2.052c1.589-1.352 2.748-3.042 3.139-5.239 1.861-10.527-2.868-18.845-5.671-28.325-1.851-6.253.424-18.959-7.661-19.219-3.848-.123-4.25.92-5.875 4.599-2.887 6.544-5.375 1.469-8.949 4.821-4.223 3.96 3.252 18.662 4.152 23.478.451 2.406.777 12.385-1.146 17.834h4.567z"/><path fill="#8674C9" d="M1091.549 350.123l-5.565 2.161s-4.867-1.415-5.956-1.37c-1.167.049-1.55.812-2.151 1.813-.275.458-.888 2.038-1.383 2.574-1.749 1.875-3.655 1.583-3.646 3.212.002.81 1.689 1.804 2.484 2.565.367.362 2.009 1.229 2.898 1.11.611-.076 2.193-1.022 2.193-1.022s2.524-.232 3.229-.662c.706-.433 2.812-2.537 3.046-2.627.233-.089 5.411-1.184 8.135-1.663.619-.109-3.284-6.091-3.284-6.091z"/><path fill="#211355" d="M1114.975 340.994c-8.074 2.485-28.814 10.906-28.814 10.906s-.1 3.84 1.824 7.166c17.162-1.562 24.576-3.765 30.414-6.28 2.155-.928 7.163-3.722 6.441-7.386-.875-4.469-6.193-5.538-9.865-4.406z"/><path fill="#211355" d="M1099.743 315.146c2.185 8.375 9.416 27.839 14.356 33.485 5.17 5.903 11.399.585 10.695-4.096-1.414-9.399-8.406-31.714-13.979-36.96-5.119-4.824-12.784.568-11.072 7.571z"/><path opacity=".5" fill="#FFF" d="M1087.832 310.799c-2.431-.996-4.236-5.089-5.109-5.94-.549-.537-.936-1.441-1.649-1.794-1.33-.659-3 .455-4.403.226-1.469-.239-1.807-1.108-2.278-2.438-.524-1.475-2.636-10.192-2.786-13.136-.085-1.729-.168-3.425-.087-5.092l-1.076.312s-.305 2.14.401 8.348c.476 4.178 2.968 11.043 3.41 12.234.44 1.191 1.236 1.485 1.818 1.472 1.018-.023 3.941-1.001 3.941-1.001l1.547 1.797 3.586 5.093s.645.615 2.162.65c1.299-.127 2.045-.107.523-.731z"/><path fill="#211355" d="M1095.326 283.946c.153-.99 2.008-1.518 2.068-2.758.069-1.374-2.488-2.062-2.911-2.648-2.165-2.993.082-5.091-2.114-5.877-1.529-.546-3.36 1.721-5.562 1.292-1.358-.266-1.766-.999-2.033-1.688-.38-.973-.896-2.042-2.604-1.237-.912.432-1.207 3.47-5.071 3.213-1.39-.092-3.216-1.339-5.837-.347-2.618.99-4.092 7.148-.885 10.466 0 0 .021-.76.449-.981 2.279-1.182 2.38.11 4.816-.573 2.298-.646 7.599-2.58 7.689.361.114 3.731 1.454 1.167 2.241 3.368.661 1.85-.036 3.069.567 5.026.354.118 1.242-.448 1.536-.417.028-2.792 2.722-4.84 3.898-.98.427 1.405-1.702 5.546 1.322 10.316-.013.274.646-3.018.634-3.291.681-2.396 2.405-2.188 3.222-4.421.538-1.473-1.688-.64.757-5.517.968-1.923-2.446-1.623-2.182-3.307z"/><path opacity=".9" fill="#8674C9" d="M1074.675 275.817c.95-.294 2.085.096 3.035-.346.579-.27.971-.791 1.169-1.383-.493.136-1.075.201-1.78.154-1.39-.092-3.216-1.339-5.837-.347-2.618.99-4.092 7.148-.885 10.466 0 0 .021-.76.449-.981.558-.29.985-.431 1.35-.488l-.023-.021c-.24-.329-.873-.553-1.087-.993a2.462 2.462 0 0 1-.253-1.189c.075-1.12.702-2.049 1.568-2.732-.409.256.001 1.182.253 1.445.784.832.503-.567.555-.992.098-.841.593-2.318 1.486-2.593z"/><path fill="#211355" d="M1061.909 342.982c-8.438-.427-30.801.391-30.801.391s-1.4 3.575-.726 7.361c16.662 4.403 24.38 4.869 30.726 4.506 2.34-.138 7.999-1.052 8.571-4.74.698-4.5-3.934-7.326-7.77-7.518z"/><g><path fill="#8674C9" d="M1564.924 409.695c-3.163-.896-5.654-4.142-8.289-4.732-2.479-.549-3.571-.187-5.97-.069-2.068.104-6.887.624-6.669 1.779.022.127-.332.935 2.078 1.193.807.088 2.428.188 3.81.151 1.937-.054 3.073 1.987 3.765 2.071-1.867-.021-3.244-.827-3.848.28-1.26 2.312 11.755 3.841 14.445 4.979.01-1.517 2.374-5.073.678-5.652z"/><path fill="#211355" d="M1621.055 408.125c-8.189 2.62-19.602 6.864-24.904 12.207-5.547 5.586-4.238 10.938.461 10.938 9.479 0 27.842-3.86 32.711-9.834 4.473-5.494-1.418-15.386-8.268-13.311z"/><path fill="#FF6D57" d="M1492.737 413.453c-3.013-.602-6.33-.604-7.688-1.511-1.356-.907-5.728-5.135-5.728-5.135s-3.92-2.719-5.125-3.625c-.404-.305-5.881-8.158-8.292-8.309-2.409-.151-2.711 2.266-2.561 4.078.151 1.813 2.26 8.458 3.164 10.27.905 1.813 5.167 5.315 5.429 7.405.751 6.042 3.465 9.667 3.465 9.667s3.771-.605 6.634-2.116c2.862-1.509 9.796-1.661 10.701-1.661.905.001.001-9.063.001-9.063z"/><path fill="#FFF" d="M1471.938 416.627c.751 6.042 3.465 9.667 3.465 9.667s1.261-.202 2.877-.666c-1.006-1.639-2.191-3.285-2.627-4.975-.557-2.162-.452-4.68-1.387-6.731-1.6-3.521-4.715-5.234-6.316-8.925-1.185-2.724-1.325-7.019-1.595-10.02a1.618 1.618 0 0 0-.449-.104c-2.409-.151-2.711 2.266-2.561 4.078.151 1.813 2.26 8.458 3.164 10.27.905 1.814 5.167 5.316 5.429 7.406z"/><path fill="#B7A4F7" d="M1492.737 413.453c-3.013-.602-6.33-.604-7.688-1.511-.91-.608-3.168-2.706-4.562-4.022.209 1.745-.124 3.766.199 5.431.34 1.744.954 3.608 1.504 5.292.586 1.801 1.207 3.453 2.019 4.776 3.266-.805 7.809-.902 8.528-.902.904 0 0-9.064 0-9.064z"/><path fill="#FF6D57" d="M1648.139 418.626c.928 6.365-3.645 11.633-6.96 21.604-3.317 9.97-9.836 16.188-17.371 20.115-7.537 3.926-9.989 3.752-10.895 6.829-.906 3.079-4.177 5.981-10.205 5.378-6.03-.607-5.916-5.378-5.916-5.378l-9.231-18.362s-.877-2.123 5.153-7.563c6.029-5.436 10.062-9.97 13.076-14.954 3.013-4.984 8.265-14.236 11.261-16.834 2.672-2.32 8.366-2.243 15.32-.858 9.961 1.979 15.768 10.023 15.768 10.023z"/><path opacity=".6" fill="#FF312B" d="M1648.211 421.28c-11.42 8.671-16.436 24.652-29.218 31.458-6.763 3.602-4.741-7.062-8.483-4.532 0 4.428-1.707 6.153-6.165 2.825-2.538-1.893-8.217-4.132-9.923 2.371-.469 1.786.34 3.687-.252 5.633a29.117 29.117 0 0 1-.604 1.721l3.227 6.418s-.114 4.771 5.916 5.378c6.028.604 9.299-2.299 10.205-5.378.905-3.077 3.357-2.903 10.895-6.829 7.535-3.927 14.054-10.146 17.371-20.115 2.844-8.559 6.609-13.654 7.031-18.95z"/><path fill="#FF312B" d="M1644.172 414.514c-2.702-2.298-6.703-4.899-11.801-5.912a57.108 57.108 0 0 0-4.479-.719c-.958 1.397-1.897 2.817-2.111 3.749-2.432 10.488 12.794 8.996 18.391 2.882z"/><path fill="#B7A4F7" d="M1638.549 383.662c-3.623 4.322-7.019 10.852-8.418 15.114-1.399 4.268.717 4.977 1.414 5.628.698.65-2.888 4.519-3.287 6.235-1.934 8.342 10.045 6.184 10.045 6.184l7.354-11.395s1.792 1.728 3.401-.325c2.016-2.562 4.016-3.682 2.278-4.964-1.737-1.284-2.781-.445-2.781-.445s-1.095-2.265 1.224-3.801c2.579-1.708 5.411-6.647.918-7.704-4.487-1.056-6.331.024-7.571-3.396-1.564-4.323-4.577-1.131-4.577-1.131z"/><path fill="#211355" d="M1658.236 397.466c.643-2.328.724-4.091.518-6.519-.132-1.581-1.063-2.632-1.958-3.874-1.067-1.479-2.286-3.463-3.874-4.417-1.7-1.025-3.822-1.437-5.701-1.972-1.549-.44-1.611-.896-3.223-1.074-3.736-.412-6.254 4.766-6.254 4.766l-.325.72c.374-.499.749-.979 1.13-1.434 0 0 3.013-3.192 4.577 1.131 1.24 3.421 3.084 2.341 7.571 3.396 4.493 1.057 1.661 5.996-.918 7.704-2.318 1.536-1.224 3.801-1.224 3.801s1.044-.839 2.781.445c1.737 1.282-.263 2.402-2.278 4.964-1.609 2.053-3.401.325-3.401.325l-3.325 5.153c2.329-.249 6.957-1.746 8.756-3.387 1.612-1.472 3.036-1.502 4.528-3.101 1.376-1.472 2.095-4.731 2.62-6.627z"/><path fill="#321C80" d="M1491.42 410.583l39.944-1.812s5.428-.754 9.648.906c2.396.944 34.274 17.607 39.794 28.55 2.65 5.259 15.225 15.712 1.809 25.076-2.211 1.543-11.902 2.263-11.902 2.263s-29.804-35.412-31.209-36.856c-1.842-1.89-8.059-.462-11.552-.53-7.927-.16-11.508-1.434-16.331-1.281-4.828.151-20.201-1.057-20.201-1.057s-1.352-4.828-1.357-6.949c-.01-5.44 1.357-8.31 1.357-8.31z"/><path opacity=".5" fill="#B7A4F7" d="M1576.381 432.646c-10.512-10.274-33.354-22.175-35.368-22.968-4.221-1.66-9.648-.906-9.648-.906l-39.944 1.812s-.292.619-.604 1.813c12.833-.076 25.748-1.326 38.525-1.294 5.502.015 9.852.569 14.988 2.612 4.426 1.761 6.959 5.135 11.373 7.131 2.568 1.162 5.363 2.028 7.835 3.373 2.301 1.253 4.354 3.099 6.552 4.541 2.943 1.934 4.642 5.002 8.131 5.904a31.773 31.773 0 0 0-1.84-2.018z"/><path fill="#211355" d="M1638.244 422.74c-3.246 7.976-13.047 22.585-12.36 30.088.717 7.85 9.773 8.804 14.775 2.106 5.623-7.529 12.785-23.82 11.334-31.397-1.335-6.965-10.94-7.395-13.749-.797z"/><path fill="#FFF" d="M1643.092 409.841a1.208 1.208 0 0 1-1.657-.437l-.608-1.043a1.208 1.208 0 0 1 .435-1.658l11.175-6.549a1.21 1.21 0 0 1 1.658.437l.609 1.045c.339.578.145 1.32-.434 1.661l-11.178 6.544z"/><path fill="#8674C9" d="M1634.292 419.232s2.028-8.954 3.902-10.667c1.588-1.45 5.735-.902 7.615-1.855.488-.246.805-1.094 1.248-1.703.388-.533.86-.677 1.081-.216.167.343.092 1.287.296 1.229.342-.092.468-.199.815-.58.426-.471.07-1.464 1.312-1.512.576-.023.422 1.472.658 1.519.234.046.368-1.726 1.13-1.17.672.492-.125 2.748-.097 3.884.013.534-.478 2.386-1.185 2.985-.487.41-2.31.955-2.31.955s-2.373.331-3.192.571c-.819.235-4.137.164-4.908 1.258-.146.212-.348 4.112-.997 6.582-.163.628-5.368-1.28-5.368-1.28z"/><path fill="#211355" d="M1596.551 418.005c-13.763-5.959-31.619-9.222-31.619-9.222s-3.042 3.032-3.058 6.999c13.79 7.938 26.933 14.586 33.444 15.396 2.401.301 7.492-.652 8.757-4.293 1.545-4.441-3.884-7.306-7.524-8.88z"/><path fill="#FF312B" d="M1638.515 446.314c-1.265-2.341-3.221-4.935-3.943-6.194-1.272-2.216-1.272-2.244-2.724-4.327-1.592-2.282-4.697-6.51-6.877-8.271-3.625-2.934-9.863-4.006-13.275-7.357a11.01 11.01 0 0 1-1.382-1.673c-1.623 2.766-3.213 5.635-4.523 7.803-1.844 3.048-4.075 5.928-6.901 8.95.986 1.283 2.008 2.504 3.068 3.272 2.094 1.518 5.291 1.139 7.416 2.841 3.172 2.54 4.778 3.864 6.097 5.93 2.463 3.854 5.419 8.822 7.345 13.562.322-.163.648-.327.993-.505 5.862-3.057 11.104-7.511 14.706-14.031z"/><path fill="#211355" d="M1639.015 451.554c1.583-10.836 2.769-36.668 2.769-36.668s-2.578-1.454-6.498-.901c-5.168 17.058-10.64 30.66-10.503 37.233.048 2.424 1.722 7.339 5.5 8.066 4.605.894 8.158-3.801 8.732-7.73z"/><g opacity=".4" fill="#FFF"><path d="M1642.572 383.642c-.334-1.282-.421-1.855.414-2.531.484-.39 2.232-.765 2.825-.978-.476-.227-.894-.422-1.813-.522-3.736-.412-6.254 4.766-6.254 4.766-.115.255-.223.49-.325.718-3.182 4.238-6.034 9.87-7.288 13.683-1.206 3.677.196 4.711 1.057 5.344a3.686 3.686 0 0 1-.269-.491c-1.089-2.387.476-4.57 1.401-6.734 1.193-2.781 3.236-7.624 5.416-9.64 1.091-1.011 4.304-3.45 4.836-3.615zM1630.358 409.361c.453-.957 1.209-2.021 1.54-3.069.37-1.164.137-1.252-.274-1.647.013.688-1.239 2.332-2.232 3.84.391.203.763.398.966.876z"/></g><path fill="#211355" d="M1575.293 452.672c-4.31-4.433-9.449-7.778-13.966-11.968-1.28-1.187-2.397-2.588-3.767-3.703-4.054-3.306-11.717-4.146-13.32-9.635-.687-2.349-2.154-4.914-4.859-5.919-3.065-1.14-5.945-.884-9.082-.432-2.364.341-4.145 1.937-6.644 2.315-6.279.955-10.709-4.746-17.129-3.51-1.938.369-3.673 1.691-5.725 1.987-2.666.381-4.479-.179-6.858-1.128-1.272-.508-2.684-.904-3.771-.508.318 2.344 1.248 5.669 1.248 5.669s15.373 1.208 20.201 1.057c4.823-.152 8.404 1.121 16.331 1.281 3.493.068 9.71-1.359 11.552.53 1.405 1.444 31.209 36.856 31.209 36.856s5.27-.392 8.922-1.216c.75-1.37 1.439-2.918 1.146-4.522-.519-2.829-3.547-5.158-5.488-7.154z"/><path fill="#FF6D57" d="M1520.795 451.879l-6.812-1.503s-11.807-4.406-13.248-4.614c-1.935-.277-3.484.1-3.924 1.587-.438 1.485.267 5.997 2.188 7.99 1.892 1.965 5.56 4.755 8.417 5.302 2.858.548 7.152 3.241 8.632 4.485 1.481 1.249 4.97 3.956 6.674 3.38 3.88-1.318 7.522-8.783 7.522-8.783l-9.449-7.844z"/><path fill="#B7A4F7" d="M1516.066 451.031c2.89 5.694 6.704 8.83 12.551 11.75a33.953 33.953 0 0 0 1.627-2.859l-7.648-8.287-6.53-.604z"/><path fill="#FFF" d="M1522.724 466.543c-4.61-3.156-5.688-5.342-9.717-6.686-3.212-1.071-10.909-4.63-12.444-7.724-1.061-2.143-1.398-4.232-1.786-6.386-.976.171-1.691.666-1.966 1.601-.438 1.485.267 5.997 2.188 7.99 1.892 1.965 5.56 4.755 8.417 5.302 2.858.548 7.152 3.241 8.632 4.485 1.481 1.249 4.97 3.956 6.674 3.38.609-.21 1.211-.568 1.795-1.023-.571-.237-1.159-.505-1.793-.939z"/><path fill="#321C80" d="M1591.184 444.207c-3.958-4.014-16.052-14.728-21.326-18.691-4.521-3.392-4.416-4.015-6.66-4.574-1.784-.445-4.809-.532-7.714 2.378-2.907 2.914-13.069 11.58-15.976 13.846s-11.31 9.117-17.76 13.913c1.929 7.286 8.357 10.037 8.357 10.037s18.214-9.141 21.158-10.908c3.615-2.172 5.84-5.274 5.84-5.274s12.593 19.776 15.563 23.557c3.919 4.982 11.56 7.76 17.058 7.123 6.757-.781 9.063-3.877 10.677-6.465 1.615-2.59 1.049-8.353-1.21-11.587-2.261-3.239-4.048-9.34-8.007-13.355z"/><path fill="#211355" d="M1597.59 470.066c0-.653-.438-.935-1.574-1.147-4.89-.909-9.706 1.353-14.34-1.581-2.445-1.547-2.877-3.338-4.151-5.59-1.149-2.034-2.519-2.711-4.425-3.925-4.543-2.894-7.103-6.512-8.359-11.535-3.28-13.082-14.306-3.623-20.64.92-3.295 2.362-7.507 2.16-10.295 4.662-2.368 2.13-4.695 5.065-7.783 6.332 1.859 1.617 3.483 2.314 3.483 2.314s18.212-9.142 21.157-10.91c3.617-2.174 6.854-5.378 6.854-5.378s11.578 19.879 14.551 23.658c3.919 4.984 11.56 7.763 17.057 7.126 5.242-.605 8.465-3.074 8.465-4.946z"/><path opacity=".5" fill="#B7A4F7" d="M1569.857 425.516c-4.521-3.392-4.416-4.015-6.66-4.574-1.784-.445-4.809-.532-7.714 2.378-2.907 2.914-13.069 11.58-15.976 13.846s-11.31 9.117-17.76 13.913c.146.545.321 1.059.514 1.556 2.674-2.371 6.143-4.489 8.644-6.629 3.308-2.826 6.641-5.901 9.975-8.68 3.073-2.559 7.424-3.424 10.309-6.303 2.588-2.577 5.567-6.372 9.392-6.65 3.687-.269 20.074 10.954 23.962 13.612-1.146-1.133-8.895-7.775-9.955-8.67-1.832-1.525-3.475-2.855-4.731-3.799z"/></g></svg>