<?xml version="1.0" encoding="utf-8"?>
<!-- Generator: Adobe Illustrator 24.1.2, SVG Export Plug-In . SVG Version: 6.00 Build 0)  -->
<svg version="1.1" id="Layer_1" xmlns="http://www.w3.org/2000/svg" xmlns:xlink="http://www.w3.org/1999/xlink" x="0px" y="0px"
	 viewBox="0 0 105 26" style="enable-background:new 0 0 105 26;" xml:space="preserve">
<style type="text/css">
	.st0{opacity:0.75;fill:#FFFFFF;}
	.st1{fill:#3349C4;}
</style>
<g>
	<rect class="st0" width="105" height="26"/>
	<g>
		<path class="st1" d="M25.6,13c0,0.2,0,0.5,0,0.7c0,0.2,0,0.5-0.1,0.7c0,0.2-0.1,0.4-0.2,0.6c-0.1,0.2-0.2,0.4-0.3,0.5
			c-0.2,0.2-0.5,0.4-0.7,0.5c-0.3,0.1-0.6,0.2-0.9,0.2h-2.2V9.9h2.2c0.4,0,0.7,0.1,0.9,0.2c0.3,0.1,0.5,0.3,0.7,0.5
			c0.1,0.2,0.3,0.3,0.3,0.5c0.1,0.2,0.1,0.4,0.2,0.6c0,0.2,0.1,0.4,0.1,0.7C25.6,12.5,25.6,12.8,25.6,13z M25,13c0-0.2,0-0.4,0-0.6
			s0-0.4,0-0.6c0-0.2-0.1-0.3-0.1-0.5c-0.1-0.2-0.1-0.3-0.2-0.4c-0.2-0.2-0.4-0.3-0.6-0.4c-0.2-0.1-0.4-0.1-0.7-0.1h-1.4v5.1h1.4
			c0.2,0,0.5,0,0.7-0.1s0.4-0.2,0.6-0.4c0.1-0.1,0.2-0.2,0.2-0.4c0.1-0.1,0.1-0.3,0.1-0.5c0-0.2,0-0.4,0-0.6S25,13.2,25,13z"/>
		<path class="st1" d="M27.6,16.1V9.9h4v0.6h-3.3v2.2h2.8v0.6h-2.8v2.3h3.3v0.6H27.6z"/>
		<path class="st1" d="M37.2,14.4c0,0.3-0.1,0.5-0.2,0.7c-0.1,0.2-0.3,0.4-0.4,0.6c-0.2,0.2-0.4,0.3-0.7,0.4
			c-0.3,0.1-0.6,0.1-0.9,0.1c-0.2,0-0.5,0-0.7,0c-0.2,0-0.4-0.1-0.6-0.1c-0.2-0.1-0.3-0.2-0.5-0.3s-0.3-0.2-0.5-0.4l0.5-0.5
			c0.3,0.3,0.5,0.4,0.8,0.5s0.6,0.1,0.9,0.1c0.5,0,0.8-0.1,1.1-0.3s0.4-0.5,0.4-0.9c0-0.3-0.1-0.6-0.3-0.8c0,0-0.1-0.1-0.1-0.1
			s-0.1-0.1-0.2-0.1c-0.1,0-0.1,0-0.2-0.1c-0.1,0-0.2,0-0.3-0.1l-0.7-0.1c-0.5-0.1-0.9-0.2-1.2-0.5c-0.3-0.3-0.5-0.7-0.5-1.2
			c0-0.3,0-0.5,0.1-0.7c0.1-0.2,0.2-0.4,0.4-0.6c0.2-0.2,0.4-0.3,0.6-0.4c0.3-0.1,0.5-0.1,0.9-0.1c0.4,0,0.8,0.1,1.1,0.2
			c0.3,0.1,0.6,0.3,0.9,0.5l-0.4,0.4c-0.2-0.2-0.4-0.3-0.6-0.4c-0.2-0.1-0.5-0.1-0.9-0.1c-0.4,0-0.8,0.1-1,0.3
			c-0.2,0.2-0.4,0.5-0.4,0.9c0,0.3,0.1,0.6,0.3,0.7c0.1,0.1,0.2,0.2,0.4,0.2c0.1,0.1,0.3,0.1,0.5,0.1l0.7,0.1c0.3,0,0.5,0.1,0.7,0.2
			s0.3,0.2,0.5,0.3c0.2,0.1,0.3,0.3,0.4,0.5S37.2,14.1,37.2,14.4z"/>
		<path class="st1" d="M43.3,14.3c-0.1,0.6-0.4,1-0.8,1.4c-0.4,0.3-0.9,0.5-1.5,0.5c-0.3,0-0.6-0.1-0.9-0.2
			c-0.3-0.1-0.5-0.3-0.7-0.5c-0.2-0.1-0.3-0.3-0.4-0.5c-0.1-0.2-0.2-0.3-0.2-0.5c0-0.2-0.1-0.4-0.1-0.7c0-0.3,0-0.6,0-0.9
			c0-0.4,0-0.7,0-0.9c0-0.3,0-0.5,0.1-0.7c0-0.2,0.1-0.4,0.2-0.5c0.1-0.2,0.2-0.3,0.4-0.5c0.2-0.2,0.4-0.3,0.7-0.5
			c0.3-0.1,0.6-0.2,0.9-0.2c0.6,0,1.1,0.2,1.5,0.5c0.4,0.3,0.6,0.8,0.8,1.4h-0.7c-0.1-0.4-0.3-0.7-0.5-0.9c-0.3-0.2-0.6-0.3-1-0.3
			c-0.4,0-0.8,0.1-1.1,0.4c-0.1,0.1-0.2,0.2-0.2,0.3c-0.1,0.1-0.1,0.3-0.1,0.4c0,0.2,0,0.4-0.1,0.6c0,0.2,0,0.5,0,0.8
			c0,0.3,0,0.6,0,0.8c0,0.2,0,0.4,0.1,0.6c0,0.2,0.1,0.3,0.1,0.4c0.1,0.1,0.1,0.2,0.2,0.3c0.3,0.3,0.7,0.4,1.1,0.4
			c0.4,0,0.7-0.1,1-0.3c0.3-0.2,0.4-0.5,0.5-0.9H43.3z"/>
		<path class="st1" d="M49.5,14.1c0,0.3-0.1,0.6-0.2,0.9c-0.1,0.3-0.3,0.5-0.5,0.7c-0.2,0.2-0.4,0.3-0.7,0.4
			c-0.3,0.1-0.6,0.2-0.9,0.2c-0.3,0-0.6-0.1-0.9-0.2c-0.3-0.1-0.5-0.2-0.7-0.4c-0.2-0.2-0.4-0.4-0.5-0.7c-0.1-0.3-0.2-0.5-0.2-0.9
			V9.9h0.7V14c0,0.2,0,0.5,0.1,0.7c0.1,0.2,0.2,0.4,0.3,0.5c0.1,0.1,0.3,0.2,0.5,0.3c0.2,0.1,0.4,0.1,0.6,0.1c0.2,0,0.4,0,0.6-0.1
			c0.2-0.1,0.4-0.2,0.5-0.3c0.1-0.1,0.2-0.3,0.3-0.5c0.1-0.2,0.1-0.4,0.1-0.7V9.9h0.7V14.1z"/>
		<path class="st1" d="M56,14.4c0,0.3,0,0.5-0.1,0.8c-0.1,0.2-0.2,0.4-0.4,0.5c-0.2,0.1-0.4,0.3-0.6,0.3c-0.2,0.1-0.5,0.1-0.8,0.1
			h-2.5V9.9H54c0.3,0,0.5,0,0.8,0.1c0.2,0.1,0.4,0.2,0.6,0.3c0.2,0.1,0.3,0.3,0.4,0.5c0.1,0.2,0.1,0.4,0.1,0.7
			c0,0.3-0.1,0.6-0.3,0.9c-0.2,0.2-0.4,0.4-0.7,0.5c0.3,0.1,0.6,0.3,0.8,0.5C55.9,13.7,56,14,56,14.4z M55.2,11.5
			c0-0.2,0-0.4-0.1-0.5c-0.1-0.1-0.2-0.2-0.3-0.3c-0.1-0.1-0.2-0.2-0.4-0.2c-0.2,0-0.3-0.1-0.5-0.1h-1.7v2.2H54c0.2,0,0.3,0,0.5-0.1
			c0.2,0,0.3-0.1,0.4-0.2c0.1-0.1,0.2-0.2,0.3-0.3C55.2,11.9,55.2,11.7,55.2,11.5z M55.3,14.4c0-0.4-0.1-0.6-0.3-0.8
			s-0.5-0.3-0.9-0.3h-1.7v2.3h1.7c0.4,0,0.7-0.1,0.9-0.3S55.3,14.7,55.3,14.4z"/>
		<path class="st1" d="M61.7,16.1l-1.5-2.8h-1.5v2.8H58V9.9h2.5c0.3,0,0.5,0,0.8,0.1c0.2,0.1,0.4,0.2,0.6,0.3
			c0.2,0.2,0.3,0.3,0.4,0.6c0.1,0.2,0.1,0.5,0.1,0.7c0,0.5-0.1,0.8-0.4,1.1c-0.3,0.3-0.6,0.5-1,0.6l1.5,2.9H61.7z M61.7,11.6
			c0-0.4-0.1-0.7-0.4-0.9c-0.2-0.2-0.5-0.3-0.9-0.3h-1.7v2.3h1.7c0.4,0,0.7-0.1,0.9-0.3C61.6,12.3,61.7,12,61.7,11.6z"/>
		<path class="st1" d="M64.3,16.1V9.9h4v0.6h-3.3v2.2h2.8v0.6h-2.8v2.3h3.3v0.6H64.3z"/>
		<path class="st1" d="M72.2,16.1v-0.6l3.2-5.1h-3.1V9.9h3.9v0.6L73,15.5h3.2v0.6H72.2z"/>
		<path class="st1" d="M81.1,16.1l-1.6-2.6L78,16.1h-0.8l2-3.2l-1.8-3.1h0.8l1.4,2.5L81,9.9h0.8l-1.8,3.1l2,3.2H81.1z"/>
	</g>
</g>
</svg>
